<svg xmlns="http://www.w3.org/2000/svg" xmlns:xlink="http://www.w3.org/1999/xlink" width="433" height="421" viewBox="0 0 433 421">
    <defs>
        <path id="prefix__a" d="M141.613.508c-14.8.015-31.428 4.651-50.57 15.83-52.39 30.596-81.724 93.53-88.808 153.127C.735 182.076.015 194.214 0 205.89v.744c.113 92.798 44.852 155.791 97.443 187.112 59.167 35.236 149.497 42.895 242.551-23.13 48.889-34.686 90.46-90.43 92.332-151.028 3.364-108.963-103.95-88.93-158.762-121.572C229.834 71.972 199.904.557 141.756.508h-.143z"/>
        <path id="prefix__e" d="M0.916 0.866L37.838 0.866 37.838 37.788 0.916 37.788z"/>
        <path id="prefix__g" d="M0.836 0.866L37.758 0.866 37.758 37.788 0.836 37.788z"/>
        <linearGradient id="prefix__b" x1="45.402%" x2="54.498%" y1="97.158%" y2="2.327%">
            <stop offset="0%" stop-color="#F8D692" stop-opacity="0"/>
            <stop offset="100%" stop-color="#F8D692" stop-opacity=".7"/>
        </linearGradient>
        <linearGradient id="prefix__d" x1="50%" x2="50%" y1="52.647%" y2="49.556%">
            <stop offset="0%" stop-color="#FFF"/>
            <stop offset="100%" stop-color="#FFF" stop-opacity="0"/>
        </linearGradient>
    </defs>
    <g fill="none" fill-rule="evenodd">
        <mask id="prefix__c" fill="#fff">
            <use xlink:href="#prefix__a"/>
        </mask>
        <path fill="url(#prefix__b)" d="M141.613.508c-14.8.015-31.428 4.651-50.57 15.83-52.39 30.596-81.724 93.53-88.808 153.127C.735 182.076.015 194.214 0 205.89v.744c.113 92.798 44.852 155.791 97.443 187.112 59.167 35.236 149.497 42.895 242.551-23.13 48.889-34.686 90.46-90.43 92.332-151.028 3.364-108.963-103.95-88.93-158.762-121.572C229.834 71.972 199.904.557 141.756.508h-.143z" mask="url(#prefix__c)"/>
        <ellipse cx="219" cy="366" fill="#FAE5BC" rx="147" ry="25"/>
        <g>
            <path fill="#EA943D" d="M0 101.473L293.726 101.473 293.726 41.753 0 41.753z" transform="translate(69 184)"/>
            <path fill="#F77E2D" d="M25.539 41.752L52.347 41.752 45.163 56.254 18.339 56.254zM85.938 41.752L112.746 41.752 105.562 56.254 78.752 56.254zM146.336 41.752L173.144 41.752 165.96 56.254 139.15 56.254zM206.734 41.752L233.528 41.752 226.344 56.254 199.548 56.254zM267.134 41.752L259.948 56.252 286.728 56.252 293.726 42.156 293.726 41.752z" transform="translate(69 184)"/>
            <path fill="#B2B2B2" d="M36.564 183.135L57.27 183.135 57.27 101.477 36.564 101.477zM238.066 183.135L258.772 183.135 258.772 101.477 238.066 101.477zM36.564 41.693L57.27 41.693 57.27 32.421 36.564 32.421zM238.066 41.693L258.772 41.693 258.772 32.421 238.066 32.421z" transform="translate(69 184)"/>
            <path fill="#494949" d="M25.538 41.752L0 93.234 0 101.472 22.724 101.472 52.348 41.752zM85.938 41.752L56.316 101.472 83.124 101.472 112.746 41.752zM173.145 41.752L143.523 101.472 116.715 101.472 146.337 41.752zM233.529 41.752L203.921 101.472 177.113 101.472 206.735 41.752zM237.512 101.473L264.306 101.473 293.726 42.155 267.134 41.753z" transform="translate(69 184)"/>
            <path fill="url(#prefix__d)" d="M8.186 97.461L288.664 97.461 288.664 67.589 8.186 67.589z" transform="translate(69 184)"/>
            <g transform="translate(69 184) translate(27 .135)">
                <mask id="prefix__f" fill="#fff">
                    <use xlink:href="#prefix__e"/>
                </mask>
                <path fill="#FFD400" d="M37.838 19.326c0-10.196-8.266-18.46-18.462-18.46S.916 9.13.916 19.326c0 10.198 8.264 18.462 18.46 18.462 10.196 0 18.462-8.264 18.462-18.462" mask="url(#prefix__f)"/>
            </g>
            <path fill="#B2B2B2" d="M54.743 19.46c0-4.62-3.746-8.365-8.368-8.365-4.62 0-8.366 3.746-8.366 8.366 0 4.622 3.746 8.368 8.366 8.368 4.622 0 8.368-3.746 8.368-8.368" transform="translate(69 184)"/>
            <g transform="translate(69 184) translate(229 .135)">
                <mask id="prefix__h" fill="#fff">
                    <use xlink:href="#prefix__g"/>
                </mask>
                <path fill="#FFD400" d="M37.758 19.326c0-10.196-8.264-18.46-18.46-18.46C9.102.866.836 9.13.836 19.326c0 10.198 8.266 18.462 18.462 18.462s18.46-8.264 18.46-18.462" mask="url(#prefix__h)"/>
            </g>
            <path fill="#B2B2B2" d="M256.664 19.46c0-4.62-3.746-8.365-8.368-8.365-4.62 0-8.364 3.746-8.364 8.366 0 4.622 3.744 8.368 8.364 8.368 4.622 0 8.368-3.746 8.368-8.368" transform="translate(69 184)"/>
        </g>
        <g>
            <path fill="#EA943D" d="M101.022 104.704H7.476l14.308-34.686v-.02l5.754-13.996 1.586-3.836 2.584-6.244.528-1.272 5.754-13.996 1.058-2.546L49.246 3.346c1.84-4.462 8.162-4.462 10.002 0l10.2 24.762 1.056 2.546L76.26 44.65l.528 1.272 2.584 6.244 1.586 3.836 5.756 13.996v.02l14.308 34.686z" transform="translate(319 299)"/>
            <path fill="#000" fill-opacity=".2" d="M13.608 89.831L7.48 104.703 101.03 104.703 94.9 89.831z" transform="translate(319 299)"/>
            <path fill="#EA943D" d="M0.002 110.959L107.142 110.959 107.142 95.813 0.002 95.813z" transform="translate(319 299)"/>
            <path fill="#494949" d="M76.26 44.649L32.236 44.649 37.99 30.653 70.504 30.653zM86.713 69.999L86.713 70.019 21.783 70.019 21.783 69.999 27.537 56.003 80.957 56.003z" transform="translate(319 299)"/>
        </g>
        <path fill="#57a7ff" fill-rule="nonzero" d="M160.05 129v-22.05h9.6V87.9h-9.6V18.6h-20.4L93 87.9v19.05h47.1V129h19.95zM140.1 87.9h-24.75l24.75-36.15V87.9zm76.2 43.65c25.2 0 37.35-18.6 37.35-56.4S241.35 18.6 215.7 18.6c-10.8 0-19.95 4.2-26.4 12.15-8.1 9.9-11.1 24.75-11.1 45.45 0 18.75 2.4 32.4 10.5 42.9 6.9 8.7 15.6 12.45 27.6 12.45zm0-18.9c-11.85 0-17.4-12.15-17.4-36 0-25.5 4.05-38.4 17.25-38.4 11.7 0 17.4 12.3 17.4 37.2 0 24.75-5.85 37.2-17.25 37.2zM328.05 129v-22.05h9.6V87.9h-9.6V18.6h-20.4L261 87.9v19.05h47.1V129h19.95zM308.1 87.9h-24.75l24.75-36.15V87.9zM95.664 159v-6.992c1.725 0 3.197.023 4.6-.828 1.38-.851 2.093-2.162 2.093-3.91 0-1.403-.529-2.668-1.334-3.45-1.035-1.012-2.53-1.334-4.669-1.334h-3.841V159h3.151zm1.472-10.051h-1.472v-3.381h1.334c1.495 0 2.277.598 2.277 1.702 0 1.127-.713 1.679-2.139 1.679zm14.283-4.416l4.094-4.393h-3.611l-2.691 4.393h2.208zm-1.081 14.789c1.541 0 2.691-.552 3.772-1.61V159h3.059v-12.213h-3.059v1.334c-1.104-1.104-2.369-1.656-3.841-1.656-3.174 0-5.75 2.622-5.75 6.44 0 3.749 2.714 6.417 5.819 6.417zm.552-2.806c-1.909 0-3.289-1.541-3.289-3.634 0-2.001 1.265-3.611 3.289-3.611 1.932 0 3.358 1.449 3.358 3.588 0 2.231-1.472 3.657-3.358 3.657zm15.157 7.245c1.863 0 3.335-.437 4.439-1.357 1.403-1.196 1.863-2.783 1.863-5.152v-10.465h-3.059v1.334c-1.15-1.081-2.346-1.656-3.864-1.656-3.105 0-5.704 2.484-5.704 6.256 0 3.657 2.576 6.279 5.865 6.279 1.587 0 2.691-.529 3.703-1.518 0 1.15-.023 1.978-.759 2.668-.552.506-1.472.805-2.599.805-1.288 0-2.208-.322-2.829-1.058h-3.381c.828 2.553 2.967 3.864 6.325 3.864zm.115-7.567c-1.909 0-3.358-1.426-3.358-3.45 0-1.886 1.288-3.473 3.312-3.473s3.335 1.518 3.335 3.496c0 2.07-1.403 3.427-3.289 3.427zm10.488-10.465c1.081 0 1.955-.874 1.955-1.955 0-1.104-.851-2.024-1.955-2.024-1.058 0-1.955.805-1.955 1.863 0 1.127.828 2.116 1.955 2.116zM138.191 159v-12.213h-3.059V159h3.059zm5.819 0v-5.198c0-1.265-.023-2.369.598-3.358.483-.759 1.219-1.173 2.07-1.173 1.863 0 2.07 1.541 2.07 3.956V159h3.059v-8.349c0-2.622-1.909-4.186-4.186-4.186-1.357 0-2.438.575-3.611 1.564v-1.242h-3.059V159h3.059zm16.008.322c1.541 0 2.691-.552 3.772-1.61V159h3.059v-12.213h-3.059v1.334c-1.104-1.104-2.369-1.656-3.841-1.656-3.174 0-5.75 2.622-5.75 6.44 0 3.749 2.714 6.417 5.819 6.417zm.552-2.806c-1.909 0-3.289-1.541-3.289-3.634 0-2.001 1.265-3.611 3.289-3.611 1.932 0 3.358 1.449 3.358 3.588 0 2.231-1.472 3.657-3.358 3.657zM179.43 159v-5.198c0-1.265-.023-2.369.598-3.358.483-.759 1.219-1.173 2.07-1.173 1.863 0 2.07 1.541 2.07 3.956V159h3.059v-8.349c0-2.622-1.909-4.186-4.186-4.186-1.357 0-2.438.575-3.611 1.564v-1.242h-3.059V159h3.059zm16.514.322c3.726 0 6.463-2.898 6.463-6.44 0-3.611-2.921-6.417-6.486-6.417-3.335 0-6.325 2.737-6.325 6.44 0 3.588 2.806 6.417 6.348 6.417zm.023-2.898c-1.978 0-3.289-1.472-3.289-3.542 0-2.024 1.38-3.519 3.289-3.519 2.001 0 3.358 1.472 3.358 3.542 0 2.139-1.472 3.519-3.358 3.519zm21.206 2.898c2.576 0 4.301-.828 5.612-2.691l-2.576-1.219c-.851.828-1.725 1.196-3.036 1.196-1.748 0-3.128-1.012-3.427-2.829h9.844c0-.276.023-.414.023-.69 0-3.864-2.622-6.624-6.486-6.624-3.933 0-6.348 3.082-6.348 6.417 0 3.588 2.507 6.44 6.394 6.44zm3.358-7.958h-6.647c.598-1.541 1.771-2.3 3.289-2.3 1.633 0 2.944.874 3.358 2.3zM229.11 159v-5.198c0-1.265-.023-2.369.598-3.358.483-.759 1.219-1.173 2.07-1.173 1.803 0 2.055 1.443 2.07 3.725V159h3.059v-8.349c0-2.622-1.909-4.186-4.186-4.186-1.357 0-2.438.575-3.611 1.564v-1.242h-3.059V159h3.059zm17.02.322c2.392 0 4.232-.851 5.543-2.553l-2.415-1.656c-.759.943-1.84 1.403-3.197 1.403-2.254 0-3.703-1.472-3.703-3.542 0-2.116 1.495-3.703 3.841-3.703 1.334 0 2.185.46 3.059 1.38l2.553-1.403c-1.219-1.794-3.243-2.783-5.635-2.783-4.048 0-6.9 2.806-6.9 6.463 0 3.565 2.691 6.394 6.854 6.394zm14.214 0c3.726 0 6.463-2.898 6.463-6.44 0-3.611-2.921-6.417-6.486-6.417-3.335 0-6.325 2.737-6.325 6.44 0 3.588 2.806 6.417 6.348 6.417zm.023-2.898c-1.978 0-3.289-1.472-3.289-3.542 0-2.024 1.38-3.519 3.289-3.519 2.001 0 3.358 1.472 3.358 3.542 0 2.139-1.472 3.519-3.358 3.519zM272.35 159v-5.198c0-1.265-.023-2.369.598-3.358.483-.759 1.219-1.173 2.07-1.173 1.863 0 2.07 1.541 2.07 3.956V159h3.059v-8.349c0-2.622-1.909-4.186-4.186-4.186-1.357 0-2.438.575-3.611 1.564v-1.242h-3.059V159h3.059zm14.168 0v-9.591h1.817v-2.622h-1.817v-4.508h-3.059v4.508h-1.564v2.622h1.564V159h3.059zm5.819 0v-4.945c0-.667 0-1.426.023-2.093.069-1.794.759-2.806 1.633-2.806.322 0 .667.138.897.253l.943-2.622c-.299-.138-.69-.322-1.334-.322-1.012 0-2.001.598-2.576 1.863v-1.541h-2.645V159h3.059zm10.281.322c1.541 0 2.691-.552 3.772-1.61V159h3.059v-12.213h-3.059v1.334c-1.104-1.104-2.369-1.656-3.841-1.656-3.174 0-5.75 2.622-5.75 6.44 0 3.749 2.714 6.417 5.819 6.417zm.552-2.806c-1.909 0-3.289-1.541-3.289-3.634 0-2.001 1.265-3.611 3.289-3.611 1.932 0 3.358 1.449 3.358 3.588 0 2.231-1.472 3.657-3.358 3.657zm14.628 2.806c1.541 0 2.691-.552 3.772-1.61V159h3.059v-16.928h-3.059v6.049c-1.104-1.104-2.369-1.656-3.841-1.656-3.174 0-5.75 2.622-5.75 6.44 0 3.749 2.714 6.417 5.819 6.417zm.552-2.806c-1.909 0-3.289-1.541-3.289-3.634 0-2.001 1.265-3.611 3.289-3.611 1.932 0 3.358 1.449 3.358 3.588 0 2.231-1.472 3.657-3.358 3.657zm14.628 2.806c1.541 0 2.691-.552 3.772-1.61V159h3.059v-12.213h-3.059v1.334c-1.104-1.104-2.369-1.656-3.841-1.656-3.174 0-5.75 2.622-5.75 6.44 0 3.749 2.714 6.417 5.819 6.417zm.552-2.806c-1.909 0-3.289-1.541-3.289-3.634 0-2.001 1.265-3.611 3.289-3.611 1.932 0 3.358 1.449 3.358 3.588 0 2.231-1.472 3.657-3.358 3.657z"/>
        <g fill="#BBBDBF">
            <path d="M35.54 28.216c-.248-.25-.497-.374-.869-.374-.37 0-.742.123-.99.374l-1.117 1.239c-2.11-2.234-3.719-3.722-5.333-5.333l8.433-8.31c2.976 1.242 6.449.497 8.682-1.737 2.108-2.109 2.85-5.083 2.108-7.935l-.248-.868-5.458 5.58-4.589-4.589 5.459-5.58-.746-.123c-2.85-.87-5.829 0-7.936 1.982-2.357 2.356-2.976 5.83-1.737 8.805l-8.433 8.31c-2.23-2.23-5.21-5.084-9.675-9.672l-2.478-4.217-.123-.124-4.094-2.855c-.247-.123-.62-.123-.744.125L3.79 4.65c-.247.247-.247.496 0 .745l2.73 4.09c.125.127.125.127.25.251l4.093 2.354h.123c4.34 4.465 7.317 7.318 9.673 9.676L9.744 32.806c-2.48-.872-5.208-.25-7.192 1.61-2.729 2.728-2.729 7.192 0 10.045 2.727 2.73 7.192 2.73 9.92 0 1.985-1.983 2.606-4.838 1.736-7.194l7.193-7.193 3.723-3.843 5.33 5.333-1.114 1.114c-.247.25-.495.623-.495.87 0 .372.248.744.495.992l12.896 12.898c.249.248.5.372.87.372.372 0 .744-.124.993-.372l4.34-4.465c.247-.248.371-.495.371-.867 0-.374-.124-.746-.372-.993L35.54 28.216z" transform="rotate(-21 415.384 50.407)"/>
        </g>
        <g fill="#BBBDBF">
            <path d="M12.476 22.256c.165-.661.908-.991 1.818-.826.827.165 1.406.826 1.323 1.489-.165.578 0 1.24.33 1.322.248.166 1.489.33 1.903-.165.413-.496 1.322-.414 1.902.165.66.66.826 1.49.413 1.986-.413.412-.58 1.073-.413 1.32.33.33 1.24.992 1.819.827.578-.165 1.322.25 1.57 1.076.248.91 0 1.736-.58 1.9-.577.166-1.073.664-1.073.994.083.332.578 1.487 1.24 1.487.578.165.909.993.743 1.904-.165.826-.827 1.403-1.487 1.238-.58-.164-1.241 0-1.406.33-.083.414-.166 1.573.248 1.986.497.413.414 1.322-.248 1.903-.496.66-1.406.827-1.902.413-.413-.413-1.075-.578-1.323-.413-.33.248-.992 1.239-.743 1.816.165.579-.415 1.323-1.241 1.573-.743.249-1.571 0-1.818-.58-.167-.661-.581-1.074-.993-1.074-.331 0-1.406.578-1.57 1.159-.083.66-.911.99-1.737.826-.91-.25-1.406-.911-1.323-1.49.165-.661 0-1.238-.331-1.403-.33-.166-1.488-.25-1.901.247-.497.412-1.323.33-1.985-.165-.661-.661-.826-1.49-.413-1.985.413-.497.248-1.57.082-1.9-.247-.335-.91-.417-1.488-.248-.578.248-1.241-.251-1.57-1.16-.248-.826.082-1.652.66-1.82.58-.248.993-.661.993-.992 0-.412-.496-1.404-1.158-1.57-.578-.164-.992-.993-.743-1.818.165-.826.825-1.406 1.405-1.24.66.082 1.24-.083 1.406-.413.165-.33.248-1.49-.248-1.902l-.072-.083c-.329-.444-.223-1.28.32-1.902.495-.578 1.405-.827 1.9-.331.497.413 1.077.578 1.407.33.248-.165.908-1.157.743-1.735-.165-.578.332-1.325 1.158-1.572.828-.33 1.654 0 1.819.579.247.58.662 1.076.993 1.076.412-.083 1.405-.58 1.57-1.16zm5.87 8.765c-1.241-3.556-5.044-5.623-8.682-4.382l-.23.077c-3.49 1.246-5.368 5.041-4.235 8.523 1.158 3.637 5.043 5.62 8.682 4.463 3.555-1.156 5.539-5.044 4.465-8.681zM39.512 6.216c.248-.908 1.321-1.32 2.48-1.155 1.157.33 1.983 1.238 1.735 2.064-.165.83.083 1.655.578 1.903.415.165 1.986.247 2.564-.33.58-.662 1.82-.497 2.646.247.91.825 1.16 1.986.58 2.646-.58.661-.827 1.487-.58 1.903.331.413 1.654 1.238 2.481 1.074.826-.249 1.737.412 2.15 1.57.33 1.076 0 2.231-.91 2.48-.744.331-1.405.83-1.322 1.406.082.497.743 1.901 1.57 2.066.827.166 1.324 1.325 1.074 2.481-.247 1.16-1.157 1.986-2.066 1.738-.826-.165-1.653.083-1.818.495-.25.496-.333 2.065.247 2.646.661.58.495 1.735-.247 2.647-.828.91-1.985 1.156-2.646.495-.579-.495-1.489-.743-1.819-.495-.413.33-1.323 1.652-1.076 2.478.248.83-.413 1.737-1.57 2.07-1.074.411-2.232 0-2.564-.829-.248-.743-.909-1.406-1.322-1.323-.497 0-1.985.745-2.15 1.571-.248.827-1.322 1.322-2.397 1.074-1.24-.247-1.985-1.157-1.819-2.065.165-.829 0-1.654-.497-1.82-.496-.247-2.067-.33-2.645.248-.497.66-1.738.495-2.646-.248-.828-.826-1.075-1.985-.578-2.646.661-.66.33-2.233.082-2.563-.249-.496-1.158-.579-1.903-.33-.826.247-1.818-.414-2.23-1.57-.333-1.077 0-2.234.908-2.564.827-.248 1.405-.908 1.322-1.324 0-.496-.66-1.983-1.57-2.149-.826-.248-1.24-1.323-.993-2.397.25-1.243 1.158-1.985 1.986-1.82.825.165 1.653 0 1.901-.496.165-.496.247-2.066-.33-2.646-.663-.496-.498-1.735.248-2.644.827-.829 1.983-1.076 2.646-.582.66.663 1.488.828 1.818.582.495-.334 1.323-1.572 1.158-2.398-.332-.91.413-1.82 1.571-2.15 1.074-.413 2.232 0 2.48.743.331.912.91 1.49 1.405 1.49.496-.083 1.903-.743 2.068-1.573zm7.937 11.99c-1.57-4.878-6.863-7.606-11.824-6.036l-.254.086c-4.718 1.674-7.324 6.943-5.782 11.737 1.571 4.962 6.863 7.69 11.824 6.118 4.961-1.655 7.69-6.944 6.036-11.906zM14.46.675c.083-.495.663-.743 1.406-.66.662.165 1.158.743 1.075 1.24-.165.497 0 .994.248 1.076.248.083 1.24.248 1.57-.166.332-.413.994-.248 1.572.166.497.495.663 1.157.248 1.569-.33.416-.413.828-.248 1.16.166.165.91.742 1.405.577.497-.165 1.159.248 1.324.909.165.664 0 1.408-.497 1.49-.496.165-.827.496-.827.826 0 .248.414 1.156.91 1.322.497.085.744.663.662 1.406-.165.66-.745 1.158-1.241 1.075-.413-.165-.908 0-1.073.248-.083.25-.25 1.24.165 1.57.413.332.33.994-.165 1.57-.497.582-1.158.664-1.573.334-.413-.333-.91-.498-1.074-.333-.247.247-.744.994-.66 1.407.165.496-.25 1.074-.911 1.323-.662.247-1.405 0-1.488-.496-.165-.496-.496-.827-.827-.827-.331 0-1.158.414-1.241.908-.165.58-.743.744-1.487.662-.662-.165-1.158-.662-1.075-1.156.165-.496 0-1.075-.248-1.158-.25-.082-1.24-.165-1.571.165-.33.413-.992.33-1.57-.165-.497-.416-.663-1.158-.332-1.572.332-.33.165-1.238 0-1.485-.083-.332-.662-.332-1.074-.166-.496.082-1.076-.331-1.241-.994-.33-.661 0-1.323.413-1.488.497-.165.828-.495.828-.828 0-.248-.413-1.074-.91-1.24-.496-.164-.744-.743-.661-1.404.165-.746.66-1.242 1.24-1.076.496.082.992-.084 1.074-.331.166-.248.248-1.238-.165-1.57l-.075-.072c-.315-.357-.146-1.037.24-1.5.496-.495 1.158-.66 1.57-.248.333.33.828.415 1.077.248.247-.165.825-.907.66-1.404-.165-.497.248-1.077.91-1.242.66-.248 1.323 0 1.489.413.165.498.577.829.826.829.247 0 1.157-.413 1.323-.912zm4.63 7.196c-.908-2.976-4.05-4.548-6.944-3.638l-.21.068c-2.844.99-4.397 4.053-3.427 6.959.909 2.894 4.05 4.546 7.027 3.555 2.894-.908 4.547-4.05 3.555-6.944z" transform="translate(372 159)"/>
        </g>
    </g>
</svg>
