<svg xmlns="http://www.w3.org/2000/svg" width="20" height="21" viewBox="0 0 20 21">
    <path fill="#FFF" fill-rule="evenodd" d="M7 17.654c.13-.002.26-.03.38-.083.121-.053.233-.127.33-.218.045-.051.085-.107.12-.166.04-.053.07-.113.09-.177.036-.058.063-.12.08-.187.005-.07.005-.138 0-.208-.002-.135-.029-.27-.08-.394-.09-.261-.289-.467-.54-.561-.181-.087-.383-.116-.58-.083l-.18.062c-.061.021-.119.053-.17.094-.057.036-.11.077-.16.124-.091.1-.162.216-.21.343-.054.131-.081.273-.08.415 0 .574.448 1.039 1 1.039zm-3.71-.301c.097.091.209.165.33.218.12.053.25.081.38.083h.19c.066-.01.13-.03.19-.062.064-.023.124-.055.18-.094l.15-.125c.088-.1.16-.216.21-.342.06-.13.087-.272.08-.416.005-.069.005-.138 0-.207-.01-.065-.031-.128-.06-.187-.02-.064-.05-.124-.09-.177-.035-.06-.075-.115-.12-.166-.288-.295-.718-.38-1.09-.218-.123.05-.235.124-.33.218-.045.051-.085.107-.12.166-.04.053-.07.113-.09.177-.043.056-.077.12-.1.187-.005.069-.005.138 0 .207.002.136.029.27.08.395.05.126.122.242.21.343zM17 0H3C1.343 0 0 1.395 0 3.115v14.539c0 1.72 1.343 3.115 3 3.115h14c1.657 0 3-1.395 3-3.115V3.115C20 1.395 18.657 0 17 0zm1 17.654c0 .573-.448 1.038-1 1.038H3c-.552 0-1-.465-1-1.038v-3.116h16v3.116zm0-5.192H2V8.308h4c.266.001.521-.107.71-.301L8 6.708l2.8 3.324c.183.216.443.343.72.353.266.001.521-.107.71-.302l1.68-1.775H18v4.154zm0-6.231h-4.5c-.266-.002-.521.107-.71.3L11.55 7.83l-2.8-3.323c-.19-.21-.453-.329-.73-.329-.277 0-.54.12-.73.329L5.59 6.23H2V3.115c0-.573.448-1.038 1-1.038h14c.552 0 1 .465 1 1.038v3.116z"/>
</svg>
