<svg xmlns="http://www.w3.org/2000/svg" xmlns:xlink="http://www.w3.org/1999/xlink" width="20" height="20" viewBox="0 0 20 20">
    <defs>
        <path id="a" d="M14 10.364a.545.545 0 0 0-.545.546 4.39 4.39 0 1 1-1.211-3h-1.31a.545.545 0 1 0 0 1.09h2.472a.545.545 0 0 0 .545-.545V6.001a.545.545 0 0 0-1.09 0v.965a5.454 5.454 0 1 0 1.684 3.944.545.545 0 0 0-.545-.546zm1.455-8.546h-.91V.91a.91.91 0 1 0-1.818 0v.91H5.455v-.91a.91.91 0 1 0-1.819 0v.91h-.909A2.727 2.727 0 0 0 0 4.544v12.728A2.727 2.727 0 0 0 2.727 20h12.728a2.727 2.727 0 0 0 2.727-2.727V4.545a2.727 2.727 0 0 0-2.727-2.727zm-.091 16.364H2.818a1 1 0 0 1-1-1V4.545a.91.91 0 0 1 .91-.909h.908a.91.91 0 0 0 1.819 0h7.272a.91.91 0 0 0 1.818 0h.91a.91.91 0 0 1 .909.91v12.636a1 1 0 0 1-1 1z"/>
    </defs>
    <g fill="none" fill-rule="evenodd" transform="translate(.91)">
        <mask id="b" fill="#fff">
            <use xlink:href="#a"/>
        </mask>
        <use fill="#000" fill-rule="nonzero" xlink:href="#a"/>
        <g fill="#979797" mask="url(#b)">
            <path d="M-.91 0h20v20h-20z"/>
        </g>
    </g>
</svg>
