<svg xmlns="http://www.w3.org/2000/svg" xmlns:xlink="http://www.w3.org/1999/xlink" width="20" height="20" viewBox="0 0 20 20">
    <defs>
        <path id="a" d="M15.455 1.818h-.91V.91a.91.91 0 1 0-1.818 0v.91H5.455v-.91a.91.91 0 1 0-1.819 0v.91h-.909A2.727 2.727 0 0 0 0 4.544v12.728A2.727 2.727 0 0 0 2.727 20h12.728a2.727 2.727 0 0 0 2.727-2.727V4.545a2.727 2.727 0 0 0-2.727-2.727zm.909 15.455a.91.91 0 0 1-.91.909H2.728a.91.91 0 0 1-.909-.91V9.092h14.546v8.182zm0-10H1.818V4.545a.91.91 0 0 1 .91-.909h.908v.91a.91.91 0 0 0 1.819 0v-.91h7.272v.91a.91.91 0 0 0 1.818 0v-.91h.91a.91.91 0 0 1 .909.91v2.727z"/>
    </defs>
    <g fill="none" fill-rule="evenodd" transform="translate(1)">
        <mask id="b" fill="#fff">
            <use xlink:href="#a"/>
        </mask>
        <use fill="#000" fill-rule="nonzero" xlink:href="#a"/>
        <g fill="#000" mask="url(#b)">
            <path d="M-1 0h20v20H-1z"/>
        </g>
    </g>
</svg>
