<svg xmlns="http://www.w3.org/2000/svg" width="20" height="18" viewBox="0 0 20 18">
    <path fill="#57a7ff" d="M4.62 10.08c-.251.09-.45.289-.54.54-.149.371-.062.796.221 1.079.283.283.708.37 1.079.221.121-.05.233-.122.33-.21.088-.097.16-.209.21-.33.056-.119.083-.249.08-.38-.004-.265-.107-.518-.29-.71-.288-.284-.718-.367-1.09-.21zm13.14-4L16.4 2.05c-.425-1.203-1.564-2.005-2.84-2H6.44c-1.276-.005-2.415.797-2.84 2L2.24 6.11C.925 6.454.006 7.64 0 9v4c.004 1.268.804 2.397 2 2.82V17c0 .552.448 1 1 1s1-.448 1-1v-1h12v1c0 .552.448 1 1 1s1-.448 1-1v-1.18c1.196-.423 1.996-1.552 2-2.82V9c-.006-1.36-.925-2.546-2.24-2.89v-.03zM5.49 2.68c.138-.407.52-.681.95-.68h7.12c.448-.023.857.255 1 .68L15.61 6H4.39l1.1-3.32zM18 13c0 .552-.448 1-1 1H3c-.552 0-1-.448-1-1V9c0-.552.448-1 1-1h14c.552 0 1 .448 1 1v4zm-3.38-2.92c-.251.09-.45.289-.54.54-.149.371-.062.796.221 1.079.283.283.708.37 1.079.221.251-.09.45-.289.54-.54.056-.119.083-.249.08-.38-.004-.265-.107-.518-.29-.71-.288-.284-.718-.367-1.09-.21zM11 10H9c-.552 0-1 .448-1 1s.448 1 1 1h2c.552 0 1-.448 1-1s-.448-1-1-1z"/>
</svg>
