<svg xmlns="http://www.w3.org/2000/svg" xmlns:xlink="http://www.w3.org/1999/xlink" width="20" height="20" viewBox="0 0 20 20">
    <defs>
        <path id="prefix__a" d="M0 10c0 .552.448 1 1 1h7.59l-2.3 2.29c-.19.188-.296.443-.296.71 0 .267.107.522.296.71.188.19.443.296.71.296.267 0 .522-.107.71-.296l4-4c.091-.095.162-.207.21-.33.1-.243.1-.517 0-.76-.048-.123-.119-.235-.21-.33l-4-4c-.254-.254-.623-.353-.97-.26-.346.093-.617.364-.71.71-.093.347.006.716.26.97L8.59 9H1c-.552 0-1 .448-1 1zM13 0H3C1.343 0 0 1.343 0 3v3c0 .552.448 1 1 1s1-.448 1-1V3c0-.552.448-1 1-1h10c.552 0 1 .448 1 1v14c0 .552-.448 1-1 1H3c-.552 0-1-.448-1-1v-3c0-.552-.448-1-1-1s-1 .448-1 1v3c0 1.657 1.343 3 3 3h10c1.657 0 3-1.343 3-3V3c0-1.657-1.343-3-3-3z"/>
    </defs>
    <g fill="none" fill-rule="evenodd" transform="translate(2)">
        <mask id="prefix__b" fill="#fff">
            <use xlink:href="#prefix__a"/>
        </mask>
        <use fill="#000" fill-rule="nonzero" xlink:href="#prefix__a"/>
        <path fill="#57a7ff" d="M-2 0H18V20H-2z" mask="url(#prefix__b)"/>
    </g>
</svg>
