<svg xmlns="http://www.w3.org/2000/svg" width="20" height="20" viewBox="0 0 20 20">
    <path fill="#57a7ff" d="M17 0H3C1.343 0 0 1.343 0 3v10c0 1.657 1.343 3 3 3h11.59l3.7 3.71c.189.187.444.292.71.29.131.003.261-.024.38-.08.373-.153.618-.516.62-.92V3c0-1.657-1.343-3-3-3zm1 16.59l-2.29-2.3c-.189-.187-.444-.292-.71-.29H3c-.552 0-1-.448-1-1V3c0-.552.448-1 1-1h14c.552 0 1 .448 1 1v13.59zM10 10c-.552 0-1 .448-1 1s.448 1 1 1 1-.448 1-1-.448-1-1-1zm0-6c-.552 0-1 .448-1 1v3c0 .552.448 1 1 1s1-.448 1-1V5c0-.552-.448-1-1-1z"/>
</svg>
