<svg xmlns="http://www.w3.org/2000/svg" xmlns:xlink="http://www.w3.org/1999/xlink" width="433" height="451" viewBox="0 0 433 451">
    <defs>
        <linearGradient id="z6o21nrnpb" x1="45.402%" x2="54.498%" y1="97.158%" y2="2.327%">
            <stop offset="0%" stop-color="#F8D692" stop-opacity="0"/>
            <stop offset="100%" stop-color="#F8D692" stop-opacity=".7"/>
        </linearGradient>
        <linearGradient id="eysxih0utd" x1="50%" x2="50%" y1="0%" y2="100%">
            <stop offset="0%" stop-color="#FBDE62" stop-opacity=".6"/>
            <stop offset="100%" stop-color="#EDAD19"/>
        </linearGradient>
        <path id="is3fgg1wda" d="M141.613.508c-14.8.015-31.428 4.651-50.57 15.83-52.39 30.596-81.724 93.53-88.808 153.127C.735 182.076.015 194.214 0 205.89v.744c.113 92.798 44.852 155.791 97.443 187.112 59.167 35.236 149.497 42.895 242.551-23.13 48.889-34.686 90.46-90.43 92.332-151.028 3.364-108.963-103.95-88.93-158.762-121.572C229.834 71.972 199.904.557 141.756.508h-.143z"/>
    </defs>
    <g fill="none" fill-rule="evenodd">
        <mask id="7fg36yzndc" fill="#fff">
            <use xlink:href="#is3fgg1wda"/>
        </mask>
        <path fill="url(#z6o21nrnpb)" d="M141.613.508c-14.8.015-31.428 4.651-50.57 15.83-52.39 30.596-81.724 93.53-88.808 153.127C.735 182.076.015 194.214 0 205.89v.744c.113 92.798 44.852 155.791 97.443 187.112 59.167 35.236 149.497 42.895 242.551-23.13 48.889-34.686 90.46-90.43 92.332-151.028 3.364-108.963-103.95-88.93-158.762-121.572C229.834 71.972 199.904.557 141.756.508h-.143z" mask="url(#7fg36yzndc)"/>
        <g>
            <path fill="#EA943D" d="M101.022 104.704H7.476l14.308-34.686v-.02l5.754-13.996 1.586-3.836 2.584-6.244.528-1.272 5.754-13.996 1.058-2.546L49.246 3.346c1.84-4.462 8.162-4.462 10.002 0l10.2 24.762 1.056 2.546L76.26 44.65l.528 1.272 2.584 6.244 1.586 3.836 5.756 13.996v.02l14.308 34.686z" transform="translate(303 340)"/>
            <path fill="#000" fill-opacity=".2" d="M13.608 89.831L7.48 104.703 101.03 104.703 94.9 89.831z" transform="translate(303 340)"/>
            <path fill="#EA943D" d="M0.002 110.959L107.142 110.959 107.142 95.813 0.002 95.813z" transform="translate(303 340)"/>
            <path fill="#494949" d="M76.26 44.649L32.236 44.649 37.99 30.653 70.504 30.653zM86.713 69.999L86.713 70.019 21.783 70.019 21.783 69.999 27.537 56.003 80.957 56.003z" transform="translate(303 340)"/>
        </g>
        <path fill="#57a7ff" fill-rule="nonzero" d="M120 78v-3.752h-7.14v-5.264H120v-3.752h-7.14v-3.584H120v-3.752h-10.976V78H120zm6.86 0v-6.328c0-1.54-.028-2.884.728-4.088.588-.924 1.484-1.428 2.52-1.428 2.203 0 2.504 1.77 2.52 4.567V78h3.724V67.836c0-3.192-2.324-5.096-5.096-5.096-1.652 0-2.968.7-4.396 1.904v-1.512h-3.724V78h3.724zm28.56.392c2.912 0 5.152-1.036 6.748-3.108l-2.94-2.016c-.924 1.148-2.24 1.708-3.892 1.708-2.744 0-4.508-1.792-4.508-4.312 0-2.576 1.82-4.508 4.676-4.508 1.624 0 2.66.56 3.724 1.68l3.108-1.708c-1.484-2.184-3.948-3.388-6.86-3.388-4.928 0-8.4 3.416-8.4 7.868 0 4.34 3.276 7.784 8.344 7.784zm17.304 0c4.536 0 7.868-3.528 7.868-7.84 0-4.396-3.556-7.812-7.896-7.812-4.06 0-7.7 3.332-7.7 7.84 0 4.368 3.416 7.812 7.728 7.812zm.028-3.528c-2.408 0-4.004-1.792-4.004-4.312 0-2.464 1.68-4.284 4.004-4.284 2.436 0 4.088 1.792 4.088 4.312 0 2.604-1.792 4.284-4.088 4.284zM187.34 78v-6.328c0-1.54-.028-2.884.728-4.088.588-.924 1.484-1.428 2.52-1.428 2.203 0 2.504 1.77 2.52 4.567V78h3.724V67.836c0-3.192-2.324-5.096-5.096-5.096-1.652 0-2.968.7-4.396 1.904v-1.512h-3.724V78h3.724zm17.108.392c3.248 0 5.348-1.988 5.348-4.648 0-2.212-1.316-3.5-3.78-4.76l-1.372-.7c-.812-.42-1.344-.672-1.344-1.232 0-.588.588-.896 1.344-.896.896 0 1.736.532 2.576 1.372l2.296-2.324c-1.204-1.596-2.968-2.464-4.9-2.464-2.856 0-4.816 1.96-4.816 4.284 0 1.876 1.204 3.332 3.584 4.536l1.26.644c1.036.532 1.652 1.008 1.652 1.652 0 .672-.728 1.204-1.652 1.204-.98 0-2.24-.728-3.108-1.736l-2.296 2.52c1.288 1.68 3.052 2.548 5.208 2.548zm12.46-.392V66.324h2.212v-3.192h-2.212v-5.488h-3.724v5.488h-1.904v3.192h1.904V78h3.724zm7.084 0v-6.02c0-.812 0-1.736.028-2.548.084-2.184.924-3.416 1.988-3.416.392 0 .812.168 1.092.308l1.148-3.192c-.364-.168-.84-.392-1.624-.392-1.232 0-2.436.728-3.136 2.268v-1.876h-3.22V78h3.724zm12.656.364c2.072 0 3.612-.56 4.788-1.876 1.568-1.736 1.736-3.752 1.736-6.496v-6.86h-3.724v7.924c0 2.52-.812 3.892-2.8 3.892-1.96 0-2.8-1.4-2.8-4.06v-7.756h-3.724v6.804c0 1.232-.056 1.932.14 3.136.588 3.472 2.8 5.292 6.384 5.292zm17.892.028c2.912 0 5.152-1.036 6.748-3.108l-2.94-2.016c-.924 1.148-2.24 1.708-3.892 1.708-2.744 0-4.508-1.792-4.508-4.312 0-2.576 1.82-4.508 4.676-4.508 1.624 0 2.66.56 3.724 1.68l3.108-1.708c-1.484-2.184-3.948-3.388-6.86-3.388-4.928 0-8.4 3.416-8.4 7.868 0 4.34 3.276 7.784 8.344 7.784zm17.92 0c2.912 0 5.152-1.036 6.748-3.108l-2.94-2.016c-.924 1.148-2.24 1.708-3.892 1.708-2.744 0-4.508-1.792-4.508-4.312 0-2.576 1.82-4.508 4.676-4.508 1.624 0 2.66.56 3.724 1.68l3.108-1.708c-1.484-2.184-3.948-3.388-6.86-3.388-4.928 0-8.4 3.416-8.4 7.868 0 4.34 3.276 7.784 8.344 7.784zm11.76-16.548c1.316 0 2.38-1.064 2.38-2.38 0-1.344-1.036-2.464-2.38-2.464-1.288 0-2.38.98-2.38 2.268 0 1.372 1.008 2.576 2.38 2.576zM286.096 78V63.132h-3.724V78h3.724zm10.528-17.612l4.984-5.348h-4.396l-3.276 5.348h2.688zm-.14 18.004c4.536 0 7.868-3.528 7.868-7.84 0-4.396-3.556-7.812-7.896-7.812-4.06 0-7.7 3.332-7.7 7.84 0 4.368 3.416 7.812 7.728 7.812zm.028-3.528c-2.408 0-4.004-1.792-4.004-4.312 0-2.464 1.68-4.284 4.004-4.284 2.436 0 4.088 1.792 4.088 4.312 0 2.604-1.792 4.284-4.088 4.284zM311.1 78v-6.328c0-1.54-.028-2.884.728-4.088.588-.924 1.484-1.428 2.52-1.428 2.268 0 2.52 1.876 2.52 4.816V78h3.724V67.836c0-3.192-2.324-5.096-5.096-5.096-1.652 0-2.968.7-4.396 1.904v-1.512h-3.724V78h3.724z"/>
        <ellipse cx="215.5" cy="388" fill="#EBEBEB" rx="100.5" ry="25"/>
        <g>
            <path fill="url(#eysxih0utd)" d="M158.455 295.794c-4.815 4.815-12.692 4.815-17.507 0L3.61 158.456c-4.815-4.815-4.815-12.696 0-17.508L140.948 3.608c4.815-4.81 12.692-4.81 17.507 0l137.34 137.34c4.813 4.812 4.813 12.693 0 17.508l-137.34 137.338" transform="translate(66 96)"/>
            <path fill="#272529" d="M157.374 277.735l-2.626-2.625c-1.386 1.387-3.198 2.075-5.047 2.079-1.852-.004-3.662-.692-5.043-2.075l-.003-.004L24.293 154.752c-1.388-1.39-2.075-3.2-2.08-5.05.005-1.85.692-3.659 2.078-5.046L144.655 24.292l.002-.002c1.384-1.384 3.196-2.073 5.044-2.076 1.849.003 3.659.692 5.047 2.078L275.11 144.654c1.386 1.388 2.074 3.198 2.076 5.048-.002 1.849-.692 3.662-2.078 5.051l.002-.001L154.748 275.11l2.626 2.625 2.624 2.625L280.36 160c2.831-2.835 4.254-6.584 4.25-10.298.004-3.712-1.419-7.463-4.251-10.295L159.999 19.043c-2.835-2.834-6.585-4.257-10.298-4.252-3.712-.005-7.465 1.418-10.297 4.254l-120.36 120.36c-2.836 2.832-4.257 6.585-4.254 10.297-.003 3.712 1.418 7.465 4.254 10.299L139.406 280.36l-.002-.002c2.83 2.837 6.583 4.259 10.297 4.255 3.71.004 7.463-1.42 10.297-4.253l-2.624-2.625" transform="translate(66 96)"/>
            <g fill="#272529">
                <path d="M63.7 23.831c-3.188 7.258-11.656 10.563-18.919 7.378-7.261-3.186-10.566-11.656-7.38-18.917C40.589 5.029 49.06 1.722 56.323 4.91c7.264 3.186 10.566 11.66 7.378 18.92" transform="translate(66 96) translate(104.07 82.42)"/>
                <path d="M39.002 8.603c3.191-7.268 11.67-10.578 18.94-7.388 7.27 3.191 10.578 11.671 7.388 18.942L39.002 8.603" transform="translate(66 96) translate(104.07 82.42)"/>
                <path d="M66.784 24.107l-31.672-13.9c-.91-.4-.925-2.366-.925-2.366l4.815.762L65.33 20.157l3.822 3.029s-1.458 1.32-2.368.92M63.44 5.461l-2.892 6.587c-.325.738-1.186 1.075-1.925.752-.738-.325-1.073-1.19-.75-1.925l3.36-7.655c-.617-.495-1.276-.95-1.982-1.35l-3.176 7.236c-.324.739-1.185 1.074-1.923.748-.737-.323-1.074-1.182-.751-1.923L56.575.696C55.802.449 55.02.272 54.239.154l-3.36 7.65c-.322.74-1.183 1.078-1.92.751-.74-.322-1.078-1.183-.752-1.923L51.1.047c-5.13.383-9.885 3.517-12.097 8.556L65.33 20.157c2.213-5.039 1.299-10.661-1.89-14.696" transform="translate(66 96) translate(104.07 82.42)"/>
                <path d="M54.152 9.854c.738.326 1.599-.009 1.923-.748l3.176-7.235c-.422-.237-.857-.455-1.31-.656-.449-.196-.906-.37-1.366-.52L53.4 7.932c-.323.74.014 1.6.751 1.923M58.623 12.8c.74.323 1.6-.014 1.925-.752l2.893-6.587c-.65-.817-1.385-1.568-2.209-2.24l-3.359 7.654c-.323.736.012 1.6.75 1.925M48.959 8.555c.737.327 1.598-.01 1.92-.751l3.36-7.65c-1.052-.151-2.105-.187-3.14-.107l-2.892 6.585c-.326.74.013 1.6.752 1.923M57.14 42.788c-.728 1.662-14.005 29.724-19.724 40.218-1.364 2.498-4.522 3.122-6.803 2.122-2.28-1.002-11.974-3.766-14.373-4.816-2.403-1.055-4.543-6.547-3.574-9.39 3.915-11.493 14.501-39.32 15.225-40.969.903-2.053 3.299-2.988 5.356-2.087l21.805 9.57c2.057.9 2.99 3.298 2.087 5.352" transform="translate(66 96) translate(104.07 82.42)"/>
                <path d="M59.976 87.534c-2.565 0-4.672-2.055-4.72-4.632 0-.083-.163-8.475-.973-17.485-1.395-15.499-3.465-19.112-3.851-19.666-2.01-1.42-2.602-4.175-1.302-6.305 1.356-2.224 4.262-2.93 6.487-1.573 3.04 1.852 6.106 6.217 7.95 25.437.947 9.83 1.123 19.032 1.13 19.42.048 2.603-2.027 4.757-4.635 4.803l-.086.001M4.723 56.913c-.374 0-.75-.044-1.13-.137-2.53-.623-4.08-3.177-3.455-5.713.958-3.893 4.335-16.925 7.556-21.096 2.319-3.002 6.847-4.214 14.248-3.82 4.583.246 9.611 1.118 11.695 2.035 2.388 1.048 3.473 3.832 2.425 6.219-1.044 2.376-3.81 3.463-6.192 2.434-2.505-.96-12.305-1.956-14.893-.825-1.404 2.247-4.008 10.544-5.674 17.31-.529 2.154-2.457 3.593-4.58 3.593M13.3 133.63c-.818 0-1.65-.156-2.455-.479-3.355-1.362-4.977-5.183-3.62-8.537l10.525-26.03-4.717-22.43c-.746-3.545 1.524-7.02 5.067-7.761 3.542-.744 7.02 1.519 7.765 5.063l5.127 24.387c.268 1.273.152 2.598-.337 3.807L19.38 129.53c-1.032 2.55-3.49 4.1-6.08 4.1" transform="translate(66 96) translate(104.07 82.42)"/>
                <path d="M42.941 133.63c-.316 0-.637-.026-.96-.071-3.581-.526-6.058-3.853-5.532-7.442l3.994-27.25-11.727-16.076c-2.13-2.924-1.492-7.025 1.433-9.16 2.927-2.133 7.027-1.49 9.161 1.436l13.304 18.236c1.013 1.387 1.44 3.118 1.19 4.815l-4.387 29.905c-.474 3.258-3.276 5.606-6.476 5.606" transform="translate(66 96) translate(104.07 82.42)"/>
                <path d="M41.135 75.854c2.49-4.922 5.379-10.815 8.014-16.268-.947-11.172 2-22.073 2.599-23.603.6-1.524-2.712-2.55-3.2-1.402-.49 1.146-9.91 10.398-9.91 10.398s.794-13.396 1.105-14.262c.307-.868-4.037-2.844-4.483-1.965-.447.873-7.191 14.644-13.925 18.402-2.145 5.728-4.458 11.977-6.351 17.227 0 0 3.992 3.9 11.991 7.412 7.997 3.505 14.16 4.06 14.16 4.06" transform="translate(66 96) translate(104.07 82.42)"/>
                <path d="M17.93 56.317c-.577 1.563-1.147 3.107-1.69 4.603l26.546 11.65c.709-1.425 1.44-2.9 2.173-4.39L17.93 56.317M46.882 64.25c.644-1.319 1.285-2.635 1.913-3.932L20.977 48.11c-.505 1.352-1.016 2.73-1.53 4.104L46.882 64.25" transform="translate(66 96) translate(104.07 82.42)"/>
                <path d="M26.456 73.624L25.977 73.412 41.57 37.876 42.05 38.084 26.456 73.624M11.23 47.794L3.601 58.933 2.303 58.05 9.933 46.903 11.23 47.794" transform="translate(66 96) translate(104.07 82.42)"/>
                <path d="M13.013 59.001L15.037 56.04 83 102.571 80.975 105.527 13.013 59.001M99.852 105.263c3.172 2.17 5.255 10.27 3.183 13.3-2.073 3.03-10.136 3.971-13.454 1.699l-9.664-6.614s1.266-4.326 3.934-8.22c2.664-3.893 6.337-6.783 6.337-6.783s6.49 4.443 9.664 6.618" transform="translate(66 96) translate(104.07 82.42)"/>
                <path d="M79.671 105.11l2.469-3.605s6.382 4.366 8.33 5.702c1.946 1.334 1.792 3.874 1.792 3.874s-2.637.842-4.262-.268c-1.62-1.112-8.329-5.704-8.329-5.704M19.749 58.789L17.281 62.397 12.414 59.062 14.882 55.458 19.749 58.789" transform="translate(66 96) translate(104.07 82.42)"/>
                <path d="M9.24 47.221c1.56 1.455 4.913 5.005 3.357 7.28-.535.782-1.127 1.645-1.88 2.74-1.652 2.421-6.076.43-7.95-.567L1.682 58.26s7.94 4.878 10.732.802c.986-1.443 1.764-2.577 2.468-3.604 2.627-3.842-4.536-9.856-4.536-9.856L9.24 47.22" transform="translate(66 96) translate(104.07 82.42)"/>
            </g>
        </g>
    </g>
</svg>
