<svg xmlns="http://www.w3.org/2000/svg" width="20" height="20" viewBox="0 0 20 20">
    <path fill="#757575" d="M9.09 7.273h3.637c.502 0 .91-.407.91-.91 0-.501-.408-.908-.91-.908H10.91v-.91c0-.502-.407-.909-.909-.909s-.91.407-.91.91v.909c-1.505 0-2.726 1.22-2.726 2.727 0 1.506 1.22 2.727 2.727 2.727h1.818c.502 0 .91.407.91.91 0 .501-.408.908-.91.908H7.273c-.502 0-.91.407-.91.91 0 .501.408.908.91.908H9.09v.91c0 .502.407.909.909.909s.91-.407.91-.91v-.909c1.505 0 2.726-1.22 2.726-2.727 0-1.506-1.22-2.727-2.727-2.727H9.091c-.502 0-.91-.407-.91-.91 0-.501.408-.908.91-.908zM10 0C4.477 0 0 4.477 0 10s4.477 10 10 10 10-4.477 10-10c0-2.652-1.054-5.196-2.929-7.071C15.196 1.054 12.652 0 10 0zm0 18.182c-4.519 0-8.182-3.663-8.182-8.182S5.481 1.818 10 1.818 18.182 5.481 18.182 10 14.519 18.182 10 18.182z"/>
</svg>
