<svg xmlns="http://www.w3.org/2000/svg" xmlns:xlink="http://www.w3.org/1999/xlink" width="20" height="20" viewBox="0 0 20 20">
    <defs>
        <path id="a" d="M19 12a1 1 0 0 0-1 1v4a1 1 0 0 1-1 1H3a1 1 0 0 1-1-1v-4a1 1 0 0 0-2 0v4a3 3 0 0 0 3 3h14a3 3 0 0 0 3-3v-4a1 1 0 0 0-1-1zm-9.71 1.71a1 1 0 0 0 .33.21.94.94 0 0 0 .76 0 1 1 0 0 0 .33-.21l4-4a1.004 1.004 0 1 0-1.42-1.42L11 10.59V1a1 1 0 0 0-2 0v9.59l-2.29-2.3a1.004 1.004 0 1 0-1.42 1.42l4 4z"/>
    </defs>
    <g fill="none" fill-rule="evenodd">
        <mask id="b" fill="#fff">
            <use xlink:href="#a"/>
        </mask>
        <use fill="#2B764B" fill-rule="nonzero" xlink:href="#a"/>
        <path fill="#57a7ff" d="M0 0h20v20H0z" mask="url(#b)"/>
    </g>
</svg>
