<svg xmlns="http://www.w3.org/2000/svg" width="20" height="20" viewBox="0 0 20 20">
    <path fill="#57a7ff" d="M11.29 11.29l-.29.3V9c0-.552-.448-1-1-1s-1 .448-1 1v2.59l-.29-.3c-.392-.392-1.028-.392-1.42 0-.392.392-.392 1.028 0 1.42l2 2c.095.091.207.162.33.21.242.107.518.107.76 0 .123-.048.235-.119.33-.21l2-2c.392-.392.392-1.028 0-1.42-.392-.392-1.028-.392-1.42 0zM17 3h-6.28l-.32-1C9.975.797 8.836-.005 7.56 0H3C1.343 0 0 1.343 0 3v13c0 1.657 1.343 3 3 3h14c1.657 0 3-1.343 3-3V6c0-1.657-1.343-3-3-3zm1 13c0 .552-.448 1-1 1H3c-.552 0-1-.448-1-1V3c0-.552.448-1 1-1h4.56c.43-.001.812.273.95.68l.54 1.64c.138.407.52.681.95.68h7c.552 0 1 .448 1 1v10z"/>
</svg>
