<svg xmlns="http://www.w3.org/2000/svg" width="20" height="20" viewBox="0 0 20 20">
    <path fill="#F07900" fill-rule="evenodd" d="M15.625 3.125v2H8c0 .513-.386.936-.883.993L7 6.125c-.552 0-1-.448-1-1H2v2.18c1.186.43 1.976 1.558 1.976 2.82 0 1.262-.79 2.39-1.976 2.82v2.18h4c0-.552.448-1 1-1s1 .448 1 1h10v-2.18c-1.186-.43-1.976-1.558-1.976-2.82 0-.042 0-.083.002-.125h1.982c-.005.041-.008.083-.008.125 0 .552.448 1 1 1s1 .448 1 1v4c0 .552-.448 1-1 1H1c-.552 0-1-.448-1-1v-4c0-.552.448-1 1-1s1-.448 1-1-.448-1-1-1-1-.448-1-1v-4c0-.552.448-1 1-1h14.625zM7 8.125c.552 0 1 .448 1 1v2c0 .552-.448 1-1 1s-1-.448-1-1v-2c0-.552.448-1 1-1zm11.125-3.126c.345 0 .625.28.625.625v2.5c0 .345-.28.625-.625.625s-.625-.28-.625-.625v-2.5c0-.345.28-.625.625-.625zm-.444-1.694c.18-.177.449-.229.682-.131.04.014.077.032.112.056l.094.075c.117.118.182.278.181.444-.001.082-.018.162-.05.237-.032.076-.076.146-.131.207-.118.118-.277.185-.444.185-.167 0-.326-.067-.444-.185-.055-.061-.1-.13-.131-.207-.032-.075-.049-.155-.05-.237 0-.166.064-.326.181-.444z"/>
</svg>
