<svg xmlns="http://www.w3.org/2000/svg" width="20" height="21" viewBox="0 0 20 21">
    <g fill="none" fill-rule="evenodd">
        <g fill="#F00000">
            <g>
                <g>
                    <path d="M8.66 4H16c.552 0 1 .448 1 1v6c.001.177-.047.35-.14.5-.142.224-.189.495-.13.754.057.259.216.484.44.626.157.105.341.161.53.16.34 0 .656-.174.84-.46.3-.472.46-1.02.46-1.58V5c0-1.657-1.343-3-3-3H8.66c-.552 0-1 .448-1 1s.448 1 1 1zm11.05 14.29L3.86 2.45 1.71.29C1.456.036 1.087-.063.74.03.394.123.123.394.03.74c-.093.347.006.716.26.97l1.4 1.39C1.247 3.634 1.003 4.306 1 5v6c0 1.657 1.343 3 3 3h5v2H5c-.552 0-1 .448-1 1s.448 1 1 1h10c.417-.004.788-.267.93-.66l2.36 2.37c.188.19.443.296.71.296.267 0 .522-.107.71-.296.19-.188.296-.443.296-.71 0-.267-.107-.522-.296-.71zM4 12c-.552 0-1-.448-1-1V5c.002-.16.044-.319.12-.46L10.59 12H4zm7 4v-2h1.59l2 2H11z" transform="translate(-115 -486) translate(100 479) translate(15 7.5)"/>
                </g>
            </g>
        </g>
    </g>
</svg>
