<svg xmlns="http://www.w3.org/2000/svg" xmlns:xlink="http://www.w3.org/1999/xlink" width="433" height="421" viewBox="0 0 433 421">
    <defs>
        <path id="prefix__a" d="M141.613.508c-14.8.015-31.428 4.651-50.57 15.83-52.39 30.596-81.724 93.53-88.808 153.127C.735 182.076.015 194.214 0 205.89v.744c.113 92.798 44.852 155.791 97.443 187.112 59.167 35.236 149.497 42.895 242.551-23.13 48.889-34.686 90.46-90.43 92.332-151.028 3.364-108.963-103.95-88.93-158.762-121.572C229.834 71.972 199.904.557 141.756.508h-.143z"/>
        <path id="prefix__e" d="M0.95 0.066L54.352 0.066 54.352 53.469 0.95 53.469z"/>
        <path id="prefix__g" d="M0 0.934L61.987 0.934 61.987 62.922 0 62.922z"/>
        <linearGradient id="prefix__b" x1="45.402%" x2="54.498%" y1="97.158%" y2="2.327%">
            <stop offset="0%" stop-color="#F8D692" stop-opacity="0"/>
            <stop offset="100%" stop-color="#F8D692" stop-opacity=".7"/>
        </linearGradient>
        <linearGradient id="prefix__d" x1="0%" x2="100%" y1="50%" y2="50%">
            <stop offset="0%" stop-color="#ED6B05"/>
            <stop offset="64.58%" stop-color="#E98F25"/>
            <stop offset="100%" stop-color="#E6AF42" stop-opacity=".5"/>
        </linearGradient>
    </defs>
    <g fill="none" fill-rule="evenodd">
        <g transform="translate(0 -11) translate(0 11.046)">
            <mask id="prefix__c" fill="#fff">
                <use xlink:href="#prefix__a"/>
            </mask>
            <path fill="url(#prefix__b)" d="M141.613.508c-14.8.015-31.428 4.651-50.57 15.83-52.39 30.596-81.724 93.53-88.808 153.127C.735 182.076.015 194.214 0 205.89v.744c.113 92.798 44.852 155.791 97.443 187.112 59.167 35.236 149.497 42.895 242.551-23.13 48.889-34.686 90.46-90.43 92.332-151.028 3.364-108.963-103.95-88.93-158.762-121.572C229.834 71.972 199.904.557 141.756.508h-.143z" mask="url(#prefix__c)"/>
        </g>
        <path fill="#ED6B06" fill-opacity=".4" d="M195 196.5l-27.512 158.884-4.211 21.754 160.78-1.065c9.638-.048 18.18-8.647 21.283-21.422l38.085-156.884c2.354-9.698-2.813-19.785-10.129-19.778l-163.382.231c-4.8.005-8.996 4.504-10.253 10.99" transform="translate(0 -11)"/>
        <path fill="url(#prefix__d)" d="M236.468.29l.32.003C243.694.46 249.491 6 250.41 13.385l22.755 183.377v.01c.06.66 3.062 32.523 33.626 25.75-.054.158-2.843 7.95-29.51 7.398l-241.868.477-.32-.003c-6.917-.152-12.727-5.694-13.647-13.084L.316 47.821l-.036-.31c-.936-8.89 5.525-16.732 13.91-16.776l98.76-.514 8.445 8.589-10.012 11.33 17.69 12.707-13.069 40.436 35.043-44.288L136.8 46.29l17.715-17.661h-.24l22.392-23.804.265-.275c2.595-2.617 6.023-4.086 9.593-4.097l49.9-.162h.044z" transform="translate(0 -11) translate(29.617 148.372)"/>
        <path fill="#FFF" d="M149.42 272.574c-2.292 0-4.153 1.86-4.153 4.153 0 2.294 1.86 4.152 4.153 4.152 2.294 0 4.153-1.858 4.153-4.152 0-2.293-1.86-4.153-4.153-4.153zm16.612-10.382c-15.449 0-24.917-5.356-24.917-8.305 0-2.948 9.468-8.305 24.917-8.305 15.447 0 24.915 5.357 24.915 8.305 0 2.95-9.468 8.305-24.915 8.305zm24.915 16.612c0 2.948-9.468 8.305-24.915 8.305-15.449 0-24.917-5.357-24.917-8.305v-13.58c7.774 3.696 16.31 5.503 24.917 5.273 8.603.23 17.141-1.577 24.915-5.273v13.58zm0 24.914c0 2.95-9.468 8.307-24.915 8.307-15.449 0-24.917-5.356-24.917-8.307v-13.577c7.774 3.695 16.31 5.502 24.917 5.273 8.603.23 17.141-1.578 24.915-5.273v13.577zm-24.915-66.442c-16.612 0-33.223 5.69-33.223 16.61v49.832c0 10.923 16.61 16.612 33.223 16.612 16.61 0 33.22-5.689 33.22-16.612v-49.831c0-10.922-16.61-16.61-33.22-16.61zm-16.612 60.215c-2.292 0-4.153 1.858-4.153 4.152s1.86 4.153 4.153 4.153c2.294 0 4.153-1.86 4.153-4.153 0-2.294-1.86-4.152-4.153-4.152z" transform="translate(0 -11)"/>
        <g>
            <path fill="#BDE1E9" d="M283.47 245.487c3.524-2.822 7.915-4.79 10.972-8.019 8.375-8.845-11.014-16.464 14.36-32.027 4.071-2.497 8.908-3.992 13.656-5.497 26.305-8.338 40.705-23.22 44.383-48.503 2.134-14.663-7.556-28.152-15.721-33.077-7.411-4.472-17.907-5.016-22.97-11.612-3.515-4.583-3.023-10.65-.95-15.64 2.07-4.993 5.512-9.395 7.676-14.35 6.18-14.155.746-31.577-11.09-43.443-11.835-11.865-29.115-18.579-46.357-20.79-17.197-2.204-35.758.153-48.197 10.247-10.433 8.466-15.389 22.004-12.76 34.856 2.63 12.854 12.764 24.632 26.094 30.33 11.696 4.999 25.048 5.397 36.872 10.12 11.823 4.724 22.332 17.186 16.75 27.112-2.507 4.455-7.575 7.123-11.752 10.387-6.34 4.96-11.005 12.026-11.037 19.76-.033 7.736 5.365 15.931 13.667 18.522 7.936 2.478 18.502.508 23.172 6.839 3.136 4.253 1.206 9.987-2.485 13.522-3.692 3.532-8.78 5.607-13.172 8.435-7.534 4.85-13.272 13.313-10.483 21.591.805 2.39 2.285 4.68 2.375 7.139.17 4.718-4.584 7.944-7.926 11.425-2.798 2.915-4.363 6.763-1.064 9.374 1.85-1.854 3.652-4.828 5.988-6.7" transform="translate(0 -11) translate(40.5)"/>
            <g transform="translate(0 -11) translate(40.5) translate(292.147 258.918)">
                <mask id="prefix__f" fill="#fff">
                    <use xlink:href="#prefix__e"/>
                </mask>
                <path fill="#8C8C8C" d="M27.65 40.627c-7.654 0-13.857-6.205-13.857-13.859S19.996 12.91 27.65 12.91c7.655 0 13.858 6.204 13.858 13.858 0 7.654-6.203 13.859-13.858 13.859zm26.702-6.981V19.89h-5.824c-.344-1.043-.77-2.048-1.26-3.016l4.127-4.124-9.727-9.727-4.126 4.126c-.967-.49-1.971-.914-3.014-1.258V.066H20.772v5.825c-1.042.344-2.046.768-3.015 1.258l-4.124-4.126-9.726 9.727 4.124 4.124c-.49.968-.914 1.973-1.258 3.016H.95v13.756h5.823c.344 1.042.768 2.048 1.258 3.015l-4.124 4.125 9.726 9.725 4.124-4.124c.969.488 1.973.915 3.015 1.256v5.827h13.756v-5.827c1.043-.34 2.047-.768 3.014-1.256l4.126 4.124 9.727-9.725-4.126-4.125c.49-.967.915-1.973 1.26-3.015h5.823z" mask="url(#prefix__f)"/>
            </g>
            <g transform="translate(0 -11) translate(40.5) translate(0 88.345)">
                <mask id="prefix__h" fill="#fff">
                    <use xlink:href="#prefix__g"/>
                </mask>
                <path fill="#F9B928" d="M61.987 31.929c0 17.117-13.876 30.993-30.993 30.993-17.118 0-30.995-13.876-30.995-30.993C0 14.81 13.876.934 30.994.934c17.117 0 30.993 13.877 30.993 30.995" mask="url(#prefix__h)"/>
            </g>
            <path fill="#FFF" d="M27.156 98.903l.679 32.085h5.638l1.358-32.085h-7.675zm6.641 41.59c-.787.768-1.722 1.15-2.804 1.15-1.101 0-2.038-.382-2.803-1.15-.77-.767-1.152-1.703-1.152-2.804 0-1.083.382-2.018 1.152-2.805.765-.769 1.702-1.15 2.803-1.15 1.082 0 2.017.381 2.804 1.15.77.787 1.152 1.722 1.152 2.805 0 1.101-.382 2.037-1.152 2.803z" transform="translate(0 -11) translate(40.5)"/>
            <path fill="#8C8C8C" d="M124.658 165.657c.2-13.82-6.885-26.713-17.408-35.408-5.194-4.293-11.54-7.995-18.187-9.43-4.519-.973-11.148-.037-11.567 5.797-.375 5.268 5.778 7.603 10.113 7.72 5.648.153 11.093-2.839 14.64-7.124 8.7-10.512 6.508-26.245.242-37.333-9.652-17.078-28.83-26.157-47.364-29.83-2.932-.582-3.968 3.867-1.031 4.543 14.467 3.333 29.086 9.542 39.116 20.879 8.584 9.703 14.468 26.132 6.61 37.964-1.796 2.705-4.357 4.985-7.407 6.19-1.514.597-3.08.87-4.704.822-.873.041-1.727-.07-2.563-.333-3.01-.427-3.018-1.511-.022-3.252 2.533-2.71 2.596-2.427 5.597-1.418 1.855.624 3.684 1.449 5.428 2.339 2.945 1.502 5.725 3.332 8.295 5.41 9.826 7.943 16.76 19.785 16.98 32.583.036 2.09 3.201 1.955 3.232-.12M132.713 155.672c-1.624-5.278.317-10.871 3.373-15.255.962-1.38 2.08-2.852 3.606-3.656.436-.166.874-.332 1.31-.5 1.431-.51 2.21-.059 2.338 1.35.63 1.488.568 1.736-.788 2.474-4.551 2.474-6.045-3.97-5.76-7.082 1.094-11.825 12.431-19.21 22.015-24.078 1.073-.546.191-2.114-.884-1.627-6.674 3.011-13.095 7.063-17.683 12.87-3.638 4.605-6.98 11.65-5.057 17.633 1.453 4.526 8.37 6.834 10.58 1.52.752-1.806.016-3.735-1.794-4.536-2.504-1.11-5.199.109-7.032 1.882-4.827 4.663-7.705 12.813-5.49 19.3.266.78 1.514.513 1.266-.295" transform="translate(0 -11) translate(40.5)"/>
        </g>
    </g>
</svg>
