<?xml version="1.0" standalone="no"?>
<!DOCTYPE svg PUBLIC "-//W3C//DTD SVG 20010904//EN"
 "http://www.w3.org/TR/2001/REC-SVG-20010904/DTD/svg10.dtd">
<svg version="1.0" xmlns="http://www.w3.org/2000/svg"
 width="1224.000000pt" height="1224.000000pt" viewBox="0 0 1224.000000 1224.000000"
 preserveAspectRatio="xMidYMid meet">

<g transform="translate(0.000000,1224.000000) scale(0.100000,-0.100000)"
fill="#006699" stroke="none">
<path d="M1569 10781 c-58 -58 -29 -151 52 -166 19 -3 2082 -4 4586 -3 l4551
3 25 23 c14 13 28 35 32 49 9 38 -13 91 -45 108 -26 13 -580 15 -4600 15
l-4572 0 -29 -29z"/>
<path d="M2215 9300 c-968 -473 -1785 -877 -1815 -898 -258 -176 -414 -482
-396 -776 9 -135 30 -225 80 -331 69 -146 154 -245 286 -335 30 -20 857 -436
1838 -924 l1783 -886 2096 0 2096 0 1776 871 c977 480 1803 891 1836 914 140
99 289 265 355 395 152 301 97 662 -138 911 -89 95 -188 157 -447 282 -121 58
-929 450 -1795 871 l-1574 766 -2111 0 -2110 -1 -1760 -859z m3420 611 c-6 -5
-170 -96 -365 -201 -1071 -579 -1656 -930 -2106 -1265 -354 -264 -546 -461
-641 -661 -36 -75 -38 -84 -38 -180 0 -98 1 -102 43 -187 96 -195 336 -387
717 -574 514 -252 1152 -424 1700 -459 136 -8 309 8 492 46 535 110 1228 529
1778 1075 136 135 171 185 211 305 25 73 25 239 1 330 -43 158 -173 358 -335
512 l-90 85 66 7 c119 11 227 6 349 -14 395 -68 919 -257 1443 -521 412 -207
511 -288 540 -438 28 -148 -90 -360 -262 -474 -89 -58 -1046 -629 -2333 -1392
-434 -257 -799 -476 -811 -487 -19 -17 -61 -18 -987 -18 l-968 0 -1755 873
c-1454 722 -1767 881 -1819 924 -80 66 -150 163 -183 256 -23 64 -27 87 -27
202 0 111 4 141 24 204 45 135 166 286 289 358 26 15 819 405 1762 865 l1715
838 799 0 c495 0 796 -4 791 -9z m4252 -845 c967 -470 1787 -871 1821 -893 81
-49 183 -158 222 -237 111 -228 71 -452 -117 -656 -131 -142 -81 -115 -1943
-1029 l-1734 -851 -850 0 -849 0 869 516 c1521 903 1998 1190 2057 1239 123
102 240 294 271 447 42 203 -8 365 -158 514 -92 91 -201 159 -486 303 -510
259 -1036 454 -1441 537 -295 60 -705 36 -974 -56 -711 -244 -1448 -711 -1733
-1098 -171 -232 -210 -428 -132 -665 57 -172 172 -326 331 -446 l79 -60 -43
-3 c-65 -5 -269 10 -391 28 -583 85 -1238 316 -1631 575 -183 120 -335 290
-335 371 0 62 80 187 195 307 354 369 1055 819 2465 1581 461 249 640 349 705
394 l50 35 997 0 996 1 1759 -854z m-3125 -457 c174 -129 349 -331 405 -470
67 -167 47 -278 -73 -408 -227 -245 -713 -619 -1039 -799 -213 -118 -487 -228
-541 -217 -43 8 -202 86 -274 135 -254 172 -379 435 -301 633 138 353 822 843
1592 1141 63 24 121 45 131 45 9 1 54 -27 100 -60z"/>
<path d="M1520 4485 l0 -75 4645 0 4645 0 0 75 0 75 -4645 0 -4645 0 0 -75z"/>
<path d="M5805 3880 c-104 -14 -187 -39 -293 -91 -86 -42 -116 -63 -186 -132
-67 -66 -91 -99 -124 -167 -109 -225 -121 -519 -31 -752 69 -177 207 -331 372
-412 129 -63 188 -77 357 -83 125 -4 157 -2 235 16 175 42 344 146 446 277 57
73 65 96 42 116 -32 27 -63 39 -85 32 -12 -3 -69 -52 -128 -108 -161 -154
-272 -200 -480 -201 -99 0 -127 4 -200 28 -282 92 -442 356 -427 702 18 400
248 635 622 635 191 0 324 -52 460 -180 93 -88 135 -106 181 -76 14 10 27 23
30 31 19 48 -133 205 -261 272 -163 84 -347 117 -530 93z"/>
<path d="M8811 3876 c-8 -10 -10 -233 -9 -822 l3 -809 82 -3 c80 -3 83 -2 88
21 4 13 5 332 3 709 l-3 685 33 -81 c37 -89 437 -861 460 -888 10 -11 29 -18
53 -18 30 0 42 6 57 28 35 51 430 820 466 908 l21 51 0 -706 0 -706 85 0 85 0
3 809 c1 589 -1 812 -9 822 -18 22 -191 19 -217 -3 -23 -21 -430 -789 -463
-876 -12 -31 -25 -57 -30 -57 -4 0 -13 17 -19 38 -14 44 -436 854 -463 888
-17 22 -25 24 -117 24 -70 0 -101 -4 -109 -14z"/>
<path d="M2272 3868 c-9 -9 -12 -133 -12 -495 l0 -483 -65 0 c-62 0 -66 -1
-76 -27 -5 -15 -9 -43 -7 -62 l3 -36 72 -3 73 -3 2 -257 3 -257 610 0 610 0 0
60 0 60 -513 5 c-441 4 -514 7 -522 20 -5 8 -10 90 -10 181 0 127 3 169 13
178 10 7 150 12 458 13 l444 3 0 60 0 60 -200 6 c-110 4 -313 7 -451 8 -220 1
-253 3 -258 17 -3 9 -6 192 -6 408 0 292 3 395 12 404 9 9 131 12 488 12 357
0 479 3 488 12 7 7 12 33 12 58 0 25 -5 51 -12 58 -17 17 -1139 17 -1156 0z"/>
<path d="M4066 3869 c-246 -34 -399 -119 -465 -259 -22 -47 -26 -69 -26 -145
0 -112 25 -173 97 -241 96 -90 234 -139 598 -213 274 -56 364 -89 442 -159 54
-49 78 -102 78 -177 0 -137 -93 -231 -275 -281 -80 -21 -348 -31 -441 -15
-180 30 -287 91 -361 203 l-48 73 -60 3 c-111 4 -139 -36 -89 -128 56 -103
191 -202 334 -244 208 -62 562 -62 779 0 147 42 277 138 328 242 25 51 28 67
28 162 0 127 -18 175 -95 250 -96 93 -214 136 -585 214 -302 63 -407 100 -475
168 -43 42 -60 85 -60 150 0 135 115 237 302 268 92 14 292 12 372 -5 73 -15
176 -60 213 -93 12 -11 42 -48 66 -83 l43 -64 67 -3 c112 -5 130 23 81 120
-57 112 -200 208 -364 243 -90 19 -384 28 -484 14z"/>
<path d="M7396 3869 c-492 -64 -766 -376 -743 -849 3 -65 15 -150 26 -195 74
-287 292 -486 616 -561 115 -27 445 -27 560 0 267 62 469 211 569 418 65 137
80 206 81 378 0 178 -18 263 -82 393 -38 76 -61 107 -133 179 -75 74 -102 93
-191 137 -113 54 -216 84 -349 100 -98 13 -255 12 -354 0z m429 -154 c229 -63
378 -204 447 -425 20 -65 23 -96 23 -225 0 -113 -4 -166 -18 -215 -64 -237
-224 -393 -463 -452 -124 -30 -353 -30 -467 0 -281 76 -454 280 -486 572 -44
401 151 682 524 756 94 18 357 12 440 -11z"/>
<path d="M8282 1900 c-27 -36 -27 -40 -4 -40 10 0 33 16 52 35 l34 35 -30 0
c-22 0 -36 -8 -52 -30z"/>
<path d="M6010 1905 c-11 -13 -11 -19 3 -32 21 -21 49 -9 45 19 -4 28 -30 35
-48 13z"/>
<path d="M3860 1720 c0 -162 2 -190 15 -190 13 0 15 28 15 190 0 162 -2 190
-15 190 -13 0 -15 -28 -15 -190z"/>
<path d="M4535 1885 c-18 -17 -25 -35 -25 -62 0 -33 8 -44 75 -108 83 -77 91
-101 49 -134 -35 -28 -47 -27 -88 10 -27 23 -39 28 -53 21 -15 -9 -13 -14 19
-46 31 -31 42 -36 83 -36 60 0 105 40 105 92 -1 47 -17 71 -85 126 -61 49 -77
80 -55 108 18 21 60 17 87 -7 19 -18 25 -20 38 -9 18 15 7 34 -36 56 -43 22
-86 18 -114 -11z"/>
<path d="M7070 1839 l0 -70 -26 20 c-36 28 -117 29 -161 1 -87 -52 -83 -198 6
-245 42 -21 109 -19 149 5 32 20 32 20 32 0 0 -13 7 -20 20 -20 19 0 20 7 20
190 0 183 -1 190 -20 190 -18 0 -20 -7 -20 -71z m-34 -93 c27 -27 34 -42 34
-74 0 -118 -155 -151 -206 -44 -34 71 22 152 105 152 24 0 42 -9 67 -34z"/>
<path d="M7835 1898 c-81 -30 -125 -93 -125 -178 0 -65 18 -108 63 -147 42
-37 84 -47 166 -41 80 6 163 66 116 84 -8 3 -28 -5 -45 -19 -46 -39 -109 -45
-167 -16 -27 13 -58 39 -70 58 -42 62 -23 158 40 203 56 40 171 34 212 -12 18
-20 45 -17 45 6 0 8 -18 26 -40 40 -45 30 -144 41 -195 22z"/>
<path d="M9760 1860 c0 -47 -2 -50 -25 -50 -32 0 -34 -27 -2 -32 21 -3 22 -7
25 -125 2 -99 5 -123 17 -123 12 0 15 24 17 123 l3 122 28 3 c38 5 36 32 -3
32 -29 0 -30 1 -30 50 0 38 -4 50 -15 50 -11 0 -15 -12 -15 -50z"/>
<path d="M2310 1715 l0 -185 110 0 c103 0 110 1 110 20 0 19 -7 20 -90 20
l-91 0 3 73 3 72 88 3 c68 2 87 6 87 17 0 12 -18 15 -90 15 l-91 0 3 58 3 57
88 3 c68 2 87 6 87 17 0 12 -20 15 -110 15 l-110 0 0 -185z"/>
<path d="M2606 1788 c-19 -27 -21 -69 -3 -89 6 -8 31 -27 55 -43 52 -33 60
-50 37 -76 -22 -24 -43 -25 -73 -4 -24 16 -42 12 -42 -11 0 -34 97 -48 137
-20 26 18 38 67 23 94 -5 11 -30 32 -54 46 -60 35 -70 49 -56 74 13 25 52 28
70 6 16 -19 29 -19 37 0 8 24 -26 44 -74 45 -32 0 -45 -5 -57 -22z"/>
<path d="M2875 1790 c-86 -56 -87 -186 -2 -239 47 -29 137 -29 183 0 35 21 44
44 22 52 -7 2 -23 -5 -36 -17 -18 -16 -37 -21 -77 -21 -59 0 -89 19 -110 70
-18 41 -9 78 27 112 25 24 38 28 83 28 40 0 59 -5 77 -21 24 -23 48 -22 48 2
0 49 -155 74 -215 34z"/>
<path d="M3170 1714 c0 -146 26 -184 128 -184 91 0 122 48 122 190 0 83 -1 90
-20 90 -19 0 -20 -7 -20 -99 0 -117 -11 -139 -77 -148 -35 -5 -45 -2 -67 20
-25 25 -26 32 -26 127 0 93 -1 100 -20 100 -19 0 -20 -7 -20 -96z"/>
<path d="M3539 1771 c-37 -37 -39 -42 -39 -101 0 -59 2 -64 39 -101 35 -36 43
-39 92 -39 59 0 110 24 129 60 18 34 -16 38 -49 6 -32 -31 -89 -43 -120 -26
-23 12 -61 66 -61 88 0 9 32 12 125 12 119 0 125 1 125 20 0 30 -26 75 -56 99
-20 16 -41 21 -87 21 -56 0 -62 -2 -98 -39z m150 -5 c15 -8 32 -26 39 -40 l12
-26 -100 0 c-65 0 -100 4 -100 11 0 6 13 24 29 40 33 33 75 38 120 15z"/>
<path d="M4038 1795 c-86 -47 -89 -194 -4 -246 38 -23 124 -25 152 -4 25 19
44 19 44 0 0 -8 7 -15 15 -15 13 0 15 22 15 140 0 118 -2 140 -15 140 -8 0
-15 -9 -15 -20 0 -11 -3 -20 -6 -20 -3 0 -17 9 -31 20 -31 24 -114 27 -155 5z
m139 -35 c69 -42 63 -151 -10 -186 -75 -36 -157 16 -157 98 0 32 7 47 34 74
40 40 83 45 133 14z"/>
<path d="M4780 1738 c1 -164 29 -208 128 -208 99 1 122 35 122 179 0 80 -3
101 -14 101 -11 0 -15 -22 -18 -101 -3 -96 -4 -102 -31 -125 -39 -33 -81 -31
-118 5 -28 28 -29 33 -29 125 0 89 -1 96 -20 96 -18 0 -20 -7 -20 -72z"/>
<path d="M5120 1620 c0 -183 1 -190 20 -190 18 0 20 7 20 71 l0 70 26 -20 c58
-45 174 -18 209 48 34 66 11 155 -48 191 -44 28 -125 27 -161 -1 l-26 -20 0
20 c0 14 -6 21 -20 21 -19 0 -20 -7 -20 -190z m199 145 c36 -18 64 -76 56
-115 -9 -40 -68 -90 -106 -90 -44 0 -84 25 -103 64 -20 42 -20 50 0 92 28 59
94 80 153 49z"/>
<path d="M5548 1794 c-33 -18 -68 -81 -68 -124 0 -44 35 -107 70 -125 38 -20
115 -19 150 2 37 22 59 61 41 72 -9 6 -22 -1 -40 -21 -18 -20 -39 -31 -68 -35
-39 -5 -46 -2 -78 30 -19 19 -35 44 -35 56 0 20 5 21 125 21 93 0 125 3 125
13 -1 32 -41 97 -69 111 -38 20 -117 20 -153 0z m141 -40 c54 -45 43 -54 -64
-54 -75 0 -95 3 -95 14 0 25 59 66 95 66 21 0 45 -9 64 -26z"/>
<path d="M5840 1670 c0 -113 3 -140 14 -140 10 0 15 23 18 98 5 109 17 138 62
150 16 4 31 13 34 20 6 18 -49 15 -76 -4 -20 -14 -22 -14 -22 0 0 9 -7 16 -15
16 -13 0 -15 -22 -15 -140z"/>
<path d="M6020 1670 c0 -118 2 -140 15 -140 13 0 15 22 15 140 0 118 -2 140
-15 140 -13 0 -15 -22 -15 -140z"/>
<path d="M6193 1790 c-87 -52 -83 -198 6 -245 38 -19 113 -19 151 0 35 18 70
81 70 125 0 44 -35 107 -70 125 -41 21 -118 19 -157 -5z m153 -44 c27 -27 34
-42 34 -74 0 -115 -154 -152 -203 -49 -23 47 -13 90 30 127 48 42 94 41 139
-4z"/>
<path d="M6490 1670 c0 -118 2 -140 15 -140 12 0 15 16 15 85 0 108 16 151 61
162 18 5 34 14 37 21 6 18 -49 15 -76 -4 -20 -14 -22 -14 -22 0 0 9 -7 16 -15
16 -13 0 -15 -22 -15 -140z"/>
<path d="M7254 1791 c-82 -50 -84 -191 -2 -241 22 -13 50 -20 85 -20 44 0 58
5 88 31 19 17 35 37 35 44 0 22 -29 26 -40 5 -13 -23 -61 -50 -90 -50 -33 0
-75 26 -88 55 -25 54 -23 55 113 55 l125 0 -6 28 c-12 48 -34 81 -64 97 -41
21 -118 19 -156 -4z m153 -46 c13 -14 23 -30 23 -36 0 -5 -44 -9 -100 -9
l-100 0 12 26 c27 59 122 70 165 19z"/>
<path d="M8189 1771 c-37 -37 -39 -42 -39 -101 0 -59 2 -64 39 -101 36 -37 42
-39 99 -39 54 0 65 4 97 31 21 18 39 46 45 70 15 55 -2 110 -45 148 -32 27
-43 31 -97 31 -57 0 -63 -2 -99 -39z m151 -6 c33 -17 60 -61 60 -98 0 -13 -10
-39 -23 -58 -43 -65 -137 -62 -178 5 -23 38 -24 67 -4 106 28 54 90 73 145 45z"/>
<path d="M8510 1670 c0 -131 1 -140 19 -140 17 0 19 10 23 101 3 96 4 102 31
125 34 29 70 31 97 4 17 -17 20 -33 20 -125 0 -97 2 -105 19 -105 17 0 19 10
23 101 3 96 4 102 31 125 34 29 70 31 97 4 17 -17 20 -33 20 -125 0 -100 1
-105 21 -105 20 0 21 4 17 114 -3 105 -5 117 -27 140 -33 35 -98 36 -138 2
l-28 -24 -22 24 c-26 28 -97 33 -129 9 -25 -19 -34 -19 -34 0 0 8 -9 15 -20
15 -19 0 -20 -7 -20 -140z"/>
<path d="M9020 1620 c0 -162 2 -190 15 -190 12 0 15 14 15 70 0 39 3 70 6 70
3 0 17 -9 31 -20 57 -44 173 -17 208 49 34 66 11 155 -48 191 -44 27 -125 27
-160 0 -14 -11 -28 -20 -31 -20 -3 0 -6 9 -6 20 0 11 -7 20 -15 20 -13 0 -15
-28 -15 -190z m210 133 c42 -35 54 -67 40 -108 -33 -101 -167 -112 -207 -17
-44 105 81 198 167 125z"/>
<path d="M9390 1710 c0 -55 5 -111 12 -125 16 -36 57 -55 117 -55 91 0 120 49
121 203 0 70 -2 77 -20 77 -19 0 -20 -7 -20 -94 0 -111 -3 -122 -41 -141 -40
-21 -74 -18 -105 8 -25 22 -27 30 -32 125 -3 77 -8 102 -18 102 -11 0 -14 -22
-14 -100z"/>
<path d="M9966 1789 c-38 -30 -56 -71 -56 -128 0 -44 4 -55 38 -91 37 -38 42
-40 100 -40 54 0 65 4 97 31 43 38 60 93 45 148 -6 24 -24 52 -45 70 -31 27
-43 31 -94 31 -44 0 -65 -5 -85 -21z m128 -19 c64 -24 83 -124 35 -176 -51
-54 -146 -36 -176 33 -38 92 48 179 141 143z"/>
</g>
</svg>
