<?xml version="1.0" standalone="no"?>
<!DOCTYPE svg PUBLIC "-//W3C//DTD SVG 20010904//EN"
 "http://www.w3.org/TR/2001/REC-SVG-20010904/DTD/svg10.dtd">
<svg version="1.0" xmlns="http://www.w3.org/2000/svg"
 width="120.000000pt" height="63.000000pt" viewBox="0 0 120.000000 63.000000"
 preserveAspectRatio="xMidYMid meet">

<g transform="translate(0.000000,63.000000) scale(0.100000,-0.100000)"
fill="#ffffff" stroke="none">
<path d="M378 623 c128 -2 335 -2 460 0 125 1 20 2 -233 2 -253 0 -355 -1
-227 -2z"/>
<path d="M204 481 c-159 -78 -182 -92 -194 -121 -26 -64 -14 -75 195 -182
l190 -97 203 -1 202 0 179 89 c169 85 221 122 221 157 0 46 -25 65 -208 154
l-184 90 -212 0 -212 0 -180 -89z m260 18 c-160 -89 -236 -158 -216 -196 28
-51 209 -111 284 -94 76 18 198 109 198 148 0 11 -10 32 -21 47 -12 15 -19 29
-17 32 18 18 202 -55 222 -88 18 -30 -3 -48 -165 -145 l-154 -92 -102 -1 -102
0 -173 85 c-95 47 -179 94 -186 104 -8 11 -10 29 -6 45 5 23 33 41 183 116
l176 89 85 0 85 1 -91 -51z m513 -36 c265 -127 265 -137 3 -268 l-170 -85 -87
0 -88 0 135 81 c159 96 170 104 170 138 0 39 -9 47 -95 88 -109 51 -174 52
-263 4 -71 -38 -122 -91 -122 -124 0 -12 8 -33 17 -46 l16 -24 -49 6 c-67 10
-174 63 -174 87 0 28 75 86 208 162 l117 66 100 1 100 1 182 -87z m-293 -64
c14 -17 26 -35 26 -41 0 -17 -71 -78 -120 -103 -41 -21 -48 -22 -73 -9 -41 22
-46 60 -11 95 26 25 129 88 146 89 3 0 18 -14 32 -31z"/>
<path d="M378 13 c128 -2 335 -2 460 0 125 1 20 2 -233 2 -253 0 -355 -1 -227
-2z"/>
</g>
</svg>
