<svg xmlns="http://www.w3.org/2000/svg" xmlns:xlink="http://www.w3.org/1999/xlink" width="20" height="20" viewBox="0 0 20 20">
    <defs>
        <path id="prefix__a" d="M10 18H3c-.552 0-1-.448-1-1V3c0-.552.448-1 1-1h5v3c0 1.657 1.343 3 3 3h3v1c0 .552.448 1 1 1s1-.448 1-1V7v-.06c-.01-.092-.03-.182-.06-.27v-.09c-.048-.103-.112-.197-.19-.28l-6-6C9.667.222 9.573.158 9.47.11c-.03-.004-.06-.004-.09 0C9.278.052 9.166.014 9.05 0H3C1.343 0 0 1.343 0 3v14c0 1.657 1.343 3 3 3h7c.552 0 1-.448 1-1s-.448-1-1-1zm0-14.59L12.59 6H11c-.552 0-1-.448-1-1V3.41zM5 6c-.552 0-1 .448-1 1s.448 1 1 1h1c.552 0 1-.448 1-1s-.448-1-1-1H5zm14.71 12.29l-1.17-1.16c.769-1.342.548-3.031-.54-4.13-.997-1.032-2.523-1.35-3.848-.8-1.325.55-2.179 1.856-2.152 3.29-.007 1.227.637 2.367 1.692 2.994 1.055.627 2.363.648 3.438.056l1.16 1.17c.188.19.443.296.71.296.267 0 .522-.107.71-.296.19-.188.296-.443.296-.71 0-.267-.107-.522-.296-.71zm-3.17-1.75c-.593.558-1.517.558-2.11 0-.275-.28-.43-.657-.43-1.05-.004-.399.155-.782.44-1.06.267-.265.624-.419 1-.43.409-.025.81.121 1.105.404.297.283.461.677.455 1.086-.008.397-.174.775-.46 1.05zM11 10H5c-.552 0-1 .448-1 1s.448 1 1 1h6c.552 0 1-.448 1-1s-.448-1-1-1zm-2 6c.552 0 1-.448 1-1s-.448-1-1-1H5c-.552 0-1 .448-1 1s.448 1 1 1h4z"/>
    </defs>
    <g fill="none" fill-rule="evenodd">
        <mask id="prefix__b" fill="#fff">
            <use xlink:href="#prefix__a"/>
        </mask>
        <use fill="#6563FF" fill-rule="nonzero" xlink:href="#prefix__a"/>
        <g fill="#979797" mask="url(#prefix__b)">
            <path d="M0 0H20V20H0z"/>
        </g>
    </g>
</svg>
