<svg xmlns="http://www.w3.org/2000/svg" width="16" height="20" viewBox="0 0 16 20">
    <path fill="#57a7ff" d="M16 6.94c-.01-.092-.03-.182-.06-.27v-.09c-.048-.103-.112-.197-.19-.28l-6-6C9.667.222 9.573.158 9.47.11c-.03-.004-.06-.004-.09 0C9.278.052 9.166.014 9.05 0H3C1.343 0 0 1.343 0 3v14c0 1.657 1.343 3 3 3h10c1.657 0 3-1.343 3-3V7v-.06zm-6-3.53L12.59 6H11c-.552 0-1-.448-1-1V3.41zM14 17c0 .552-.448 1-1 1H3c-.552 0-1-.448-1-1V3c0-.552.448-1 1-1h5v3c0 1.657 1.343 3 3 3h3v9zm-3.71-6.71L7 13.59l-1.29-1.3c-.392-.392-1.028-.392-1.42 0-.392.392-.392 1.028 0 1.42l2 2c.188.19.443.296.71.296.267 0 .522-.107.71-.296l4-4c.392-.392.392-1.028 0-1.42-.392-.392-1.028-.392-1.42 0z"/>
</svg>
