<svg xmlns="http://www.w3.org/2000/svg" width="24" height="24" viewBox="0 0 24 24">
    <path fill="#69BD3F" d="M23.409 10.574L13.417.57c-.19-.182-.414-.325-.66-.42-.486-.2-1.032-.2-1.518 0-.245.095-.47.238-.66.42L.588 10.574c-.507.508-.705 1.248-.52 1.941.186.693.727 1.235 1.42 1.42.692.186 1.43-.012 1.937-.52L10 6.814v15.186c0 1.105.895 2.001 1.998 2.001 1.104 0 1.999-.896 1.999-2V6.812l6.574 6.603c.375.378.886.591 1.42.591.532 0 1.043-.213 1.418-.591.378-.376.591-.887.591-1.421 0-.533-.213-1.045-.591-1.42z"/>
</svg>
