<svg xmlns="http://www.w3.org/2000/svg" xmlns:xlink="http://www.w3.org/1999/xlink" width="319" height="281" viewBox="0 0 319 281">
    <defs>
        <path id="prefix__a" d="M94.408.339c-9.866.01-20.951 3.1-33.713 10.554C25.77 31.289 6.213 73.246 1.49 112.977.49 121.384.01 129.476 0 137.26v.496c.075 61.865 29.901 103.86 64.962 124.741 39.445 23.49 99.665 28.597 161.7-15.42 32.593-23.124 60.308-60.286 61.555-100.685 2.243-72.642-69.3-59.286-105.84-81.048C153.221 47.98 133.268.372 94.503.339h-.096z"/>
        <path id="prefix__d" d="M157.615.193L124.35.301c-2.462.008-4.823 1.056-6.572 2.915l-15.796 16.792-92.521.482c-5.655.03-9.997 5.38-9.25 11.39l14.087 112.994c.623 5.002 4.607 8.734 9.312 8.724l161.245-.318c17.958.372 19.673-4.932 19.673-4.932-20.581 4.561-22.415-17.159-22.417-17.173L166.94 8.923c-.621-5-4.596-8.73-9.295-8.73h-.03"/>
        <path id="prefix__g" d="M0.559 0.001L22.528 0.001 22.528 15.995 0.559 15.995z"/>
        <path id="prefix__i" d="M0.504 0.168L8.308 0.168 8.308 14.53 0.504 14.53z"/>
        <linearGradient id="prefix__b" x1="45.402%" x2="54.498%" y1="97.158%" y2="2.327%">
            <stop offset="0%" stop-color="#F8D692" stop-opacity="0"/>
            <stop offset="100%" stop-color="#F8D692" stop-opacity=".7"/>
        </linearGradient>
        <linearGradient id="prefix__e" x1="0%" x2="100%" y1="50%" y2="50%">
            <stop offset="0%" stop-color="#ED6B05"/>
            <stop offset="64.58%" stop-color="#E98F25"/>
            <stop offset="100%" stop-color="#E6AF42" stop-opacity=".5"/>
        </linearGradient>
    </defs>
    <g fill="none" fill-rule="evenodd">
        <g transform="translate(0 .364)">
            <mask id="prefix__c" fill="#fff">
                <use xlink:href="#prefix__a"/>
            </mask>
            <path fill="url(#prefix__b)" d="M94.408.339c-9.866.01-20.951 3.1-33.713 10.554C25.77 31.289 6.213 73.246 1.49 112.977.49 121.384.01 129.476 0 137.26v.496c.075 61.865 29.901 103.86 64.962 124.741 39.445 23.49 99.665 28.597 161.7-15.42 32.593-23.124 60.308-60.286 61.555-100.685 2.243-72.642-69.3-59.286-105.84-81.048C153.221 47.98 133.268.372 94.503.339h-.096z" mask="url(#prefix__c)"/>
        </g>
        <path fill="#ED6B06" fill-opacity=".4" d="M97.107 119.14L75.658 229.922l-2.807 14.504 143.187-.71c6.426-.032 12.12-5.765 14.188-14.282l25.39-104.59c1.57-6.465-1.875-13.19-6.752-13.184l-144.921.154c-3.2.002-5.998 3.002-6.836 7.326"/>
        <g transform="translate(19.745 91.915)">
            <mask id="prefix__f" fill="#fff">
                <use xlink:href="#prefix__d"/>
            </mask>
            <path fill="url(#prefix__e)" d="M157.615.193L124.35.301c-2.462.008-4.823 1.056-6.572 2.915l-15.796 16.792-92.521.482c-5.655.03-9.997 5.38-9.25 11.39l14.087 112.994c.623 5.002 4.607 8.734 9.312 8.724l161.245-.318c17.958.372 19.673-4.932 19.673-4.932-20.581 4.561-22.415-17.159-22.417-17.173L166.94 8.923c-.621-5-4.596-8.73-9.295-8.73h-.03" mask="url(#prefix__f)"/>
        </g>
        <g>
            <path fill="#FFF" d="M11.103 174.035c-1.529 0-2.77 1.24-2.77 2.769 0 1.53 1.241 2.768 2.77 2.768s2.768-1.239 2.768-2.768c0-1.53-1.24-2.769-2.768-2.769zm11.074-6.921c-10.299 0-16.611-3.57-16.611-5.537 0-1.965 6.312-5.537 16.611-5.537 10.298 0 16.61 3.572 16.61 5.537 0 1.966-6.312 5.537-16.61 5.537zm16.61 11.074c0 1.966-6.312 5.537-16.61 5.537-10.299 0-16.611-3.571-16.611-5.537v-9.053c5.183 2.464 10.874 3.67 16.611 3.516 5.736.153 11.428-1.052 16.61-3.516v9.053zm0 16.61c0 1.967-6.312 5.538-16.61 5.538-10.299 0-16.611-3.57-16.611-5.538v-9.052c5.183 2.464 10.874 3.669 16.611 3.516 5.736.153 11.428-1.052 16.61-3.516v9.052zm-16.61-44.295c-11.074 0-22.148 3.793-22.148 11.074v33.22c0 7.283 11.074 11.076 22.148 11.076s22.147-3.793 22.147-11.075v-33.22c0-7.282-11.073-11.075-22.147-11.075zm-11.074 40.144c-1.529 0-2.77 1.238-2.77 2.767 0 1.53 1.241 2.77 2.77 2.77s2.768-1.24 2.768-2.77c0-1.529-1.24-2.767-2.768-2.767z" transform="translate(88.51 .68)"/>
            <g transform="translate(88.51 .68) translate(207.673 104.16)">
                <mask id="prefix__h" fill="#fff">
                    <use xlink:href="#prefix__g"/>
                </mask>
                <path fill="#CECECE" d="M3.571 15.954s22.89-.787 18.366-12.433C17.413-8.125 1.044 12.853 1.044 12.853s-2.129 3.563 2.527 3.101" mask="url(#prefix__h)"/>
            </g>
            <path fill="#191616" d="M194.362 120.074c-1.36 7.581 6.579 11.454 11.019 8.14 4.96-3.7 6.143 3.039 9.567.716 5.988-4.062-.63-11.225-6.316-13.671-5.686-2.446-13.55.8-14.27 4.815" transform="translate(88.51 .68)"/>
            <path fill="#CECECE" d="M207.69 116.12s13.42-18.558 1.448-22.13c-11.972-3.573-5.446 22.224-5.446 22.224s1.507 3.867 3.999-.094M157.531 161.15s13.006 5.342 13.417-2.316c.412-7.66-14.047-.057-14.047-.057s-2.091 1.456.63 2.373" transform="translate(88.51 .68)"/>
            <path fill="#191616" d="M148.095 156.863c-2.677 3.898.787 8.07 4.108 7.34 3.71-.818 2.67 3.252 5.174 2.817 4.376-.76 2.481-6.44-.081-9.246-2.564-2.804-7.783-2.975-9.201-.91" transform="translate(88.51 .68)"/>
            <path fill="#CECECE" d="M156.551 158.018s12.198-6.994 6.402-12.018c-5.797-5.022-8.663 11.06-8.663 11.06s-.133 2.545 2.261.958M28.615 15.997s-13.848-.86-10.913-7.838c2.935-6.976 12.496 6.003 12.496 6.003s1.23 2.193-1.583 1.835" transform="translate(88.51 .68)"/>
            <path fill="#191616" d="M37.876 15.862c.701 4.638-4.199 6.862-6.846 4.77-2.957-2.336-3.79 1.747-5.837.274-3.576-2.574.574-6.822 4.076-8.217 3.502-1.393 8.235.716 8.607 3.173" transform="translate(88.51 .68)"/>
            <g transform="translate(88.51 .68) translate(27.262)">
                <mask id="prefix__j" fill="#fff">
                    <use xlink:href="#prefix__i"/>
                </mask>
                <path fill="#CECECE" d="M1.299 12.992S-2.168-.442 5.375.19c7.541.632-1.842 13.74-1.842 13.74s-1.705 1.848-2.234-.937" mask="url(#prefix__j)"/>
            </g>
            <path fill="#CECECE" d="M134.818 34.362s-6.4-17.798 3.918-17.891c10.317-.095-.766 18.881-.766 18.881s-2.082 2.724-3.152-.99" transform="translate(88.51 .68)"/>
            <path fill="#191616" d="M139.987 45.881c-5.427 3.382-10.857-1.55-9.668-5.993 1.328-4.964-4.232-3.803-3.495-7.159 1.29-5.866 8.852-2.965 12.487.667 3.634 3.631 3.55 10.694.676 12.485" transform="translate(88.51 .68)"/>
            <path fill="#CECECE" d="M138.55 32.671s14.944-11.593 18.226-1.81c3.282 9.782-18.193 5.113-18.193 5.113s-3.233-1.136-.033-3.303" transform="translate(88.51 .68)"/>
            <path stroke="#B5B5B5" stroke-width="2.192" d="M106.776 145.334s1.07-.063 2.89-.066" transform="translate(88.51 .68)"/>
            <path stroke="#B5B5B5" stroke-dasharray="7.281 7.281" stroke-width="2.192" d="M116.068 145.492c6.163.435 14.44 1.648 21.8 4.842" transform="translate(88.51 .68)"/>
            <path stroke="#B5B5B5" stroke-width="2.192" d="M140.764 151.723c.854.453 1.689.938 2.5 1.456" transform="translate(88.51 .68)"/>
            <path stroke="#B5B5B5" stroke-dasharray="6.577" stroke-width="2.192" d="M106.566 146.027s14.513-25.627 24.276-30.306M161.989 128.462c-1.698 9.253-10.576 15.376-19.83 13.677-9.252-1.698-15.376-10.576-13.677-19.829 1.698-9.252 10.576-15.376 19.829-13.677 9.252 1.698 15.377 10.576 13.678 19.829zM106.52 63.28c-3.562 6.17-11.453 8.285-17.624 4.722-6.17-3.563-8.284-11.454-4.722-17.624 3.563-6.171 11.454-8.286 17.623-4.723 6.172 3.563 8.286 11.454 4.724 17.624zM149.338 108.771s19.946-2.397 39.579 6.121M106.427 146.027s24.35-59.201 0-95.444M43.234 16.664s31.712-4.148 57.949 25.86M107.492 143.23s22.006-31.904 28.536-90.382" transform="translate(88.51 .68)"/>
        </g>
    </g>
</svg>
