<svg xmlns="http://www.w3.org/2000/svg" xmlns:xlink="http://www.w3.org/1999/xlink" width="424" height="411" viewBox="0 0 424 411">
    <defs>
        <path id="prefix__a" d="M138.662.497C124.172.512 107.89 5.052 89.146 16 37.848 45.956 9.125 107.579 2.188 165.935.72 178.283.014 190.168 0 201.6v.73c.11 90.863 43.918 152.545 95.413 183.213 57.935 34.502 146.383 42.002 237.498-22.647 47.87-33.965 88.576-88.547 90.408-147.883 3.294-106.693-101.785-87.076-155.454-119.04C225.045 70.474 195.738.547 138.803.498h-.14z"/>
        <path id="prefix__d" d="M0 411.62L423.394 411.62 423.394 0.497 0 0.497z"/>
        <linearGradient id="prefix__b" x1="45.402%" x2="54.498%" y1="97.158%" y2="2.327%">
            <stop offset="0%" stop-color="#F8D692" stop-opacity="0"/>
            <stop offset="100%" stop-color="#F8D692" stop-opacity=".7"/>
        </linearGradient>
    </defs>
    <g fill="none" fill-rule="evenodd">
        <g transform="translate(0 -1) translate(0 .534)">
            <mask id="prefix__c" fill="#fff">
                <use xlink:href="#prefix__a"/>
            </mask>
            <path fill="url(#prefix__b)" d="M138.662.497C124.172.512 107.89 5.052 89.146 16 37.848 45.956 9.125 107.579 2.188 165.935.72 178.283.014 190.168 0 201.6v.73c.11 90.863 43.918 152.545 95.413 183.213 57.935 34.502 146.383 42.002 237.498-22.647 47.87-33.965 88.576-88.547 90.408-147.883 3.294-106.693-101.785-87.076-155.454-119.04C225.045 70.474 195.738.547 138.803.498h-.14z" mask="url(#prefix__c)"/>
        </g>
        <g transform="translate(0 -1) translate(0 .534)">
            <path fill="#57a7ff" fill-opacity=".8" d="M322.652 364.898c0 4.433-3.593 8.026-8.026 8.026H95.91c-4.433 0-8.027-3.593-8.027-8.026l.032-6.652c.806 2.29 3.595 4.353 8.028 4.353h218.705c5.158 0 8.253-4.126 8.006-9.284v11.583z"/>
            <path fill="#57a7ff" fill-opacity=".6" d="M322.652 355.002c0 4.282-3.593 7.755-8.026 7.755H95.91c-4.433 0-8.027-3.473-8.027-7.755V81.564c0-4.283 3.594-7.754 8.027-7.754h218.717c4.433 0 8.026 3.47 8.026 7.754v273.438z"/>
            <mask id="prefix__e" fill="#fff">
                <use xlink:href="#prefix__d"/>
            </mask>
            <path fill="#FFF" d="M101.516 344.273L309.02 344.273 309.02 89.962 101.516 89.962z" mask="url(#prefix__e)"/>
            <path fill="#B6B4B4" d="M271.349 76.324c0-6.565-5.321-11.886-11.885-11.886H151.071c-6.564 0-11.885 5.321-11.885 11.886V97.24h132.163V76.324z" mask="url(#prefix__e)"/>
            <path fill="#B6B4B4" d="M205.268 70.856c-3.117 0-5.643-2.526-5.643-5.643 0-3.116 2.526-5.643 5.643-5.643 3.116 0 5.643 2.527 5.643 5.643 0 3.117-2.527 5.643-5.643 5.643m0-18.422c-10.174 0-18.422 8.248-18.422 18.422 0 10.174 8.248 18.422 18.422 18.422 10.174 0 18.421-8.248 18.421-18.422 0-10.174-8.247-18.422-18.421-18.422" mask="url(#prefix__e)"/>
            <path fill="#D3D3D3" d="M139.185 97.241L271.349 97.241 271.349 82.682 139.185 82.682z" mask="url(#prefix__e)"/>
            <path fill="#ECECF1" d="M272.76 163.694c0 .952-.928 1.73-2.063 1.73H132.71c-1.135 0-2.063-.778-2.063-1.73 0-.951.928-1.731 2.063-1.731h137.987c1.135 0 2.063.78 2.063 1.73M272.76 140.92c0 .952-.928 1.73-2.063 1.73H132.71c-1.135 0-2.063-.778-2.063-1.73 0-.953.928-1.732 2.063-1.732h137.987c1.135 0 2.063.78 2.063 1.731M272.76 118.144c0 .953-.928 1.732-2.063 1.732H132.71c-1.135 0-2.063-.78-2.063-1.732 0-.95.928-1.73 2.063-1.73h137.987c1.135 0 2.063.78 2.063 1.73M273.725 206.862c0 1.135-.928 2.063-2.063 2.063H162.925c-1.135 0-2.063-.928-2.063-2.063v-1.239c0-1.135.928-2.063 2.063-2.063h108.737c1.135 0 2.063.928 2.063 2.063v1.24zM273.725 234.365c0 1.134-.928 2.063-2.063 2.063H162.925c-1.135 0-2.063-.929-2.063-2.063v-1.24c0-1.134.928-2.063 2.063-2.063h108.737c1.135 0 2.063.929 2.063 2.064v1.239zM273.725 260.016c0 1.136-.928 2.064-2.063 2.064H162.925c-1.135 0-2.063-.928-2.063-2.064v-1.239c0-1.134.928-2.063 2.063-2.063h108.737c1.135 0 2.063.929 2.063 2.063v1.24zM130.647 215.881h21.115v-21.115h-21.115v21.115zm2.14-2.14h16.835v-16.837h-16.836v16.837zM130.647 243.227h21.115v-21.115h-21.115v21.115zm2.14-2.14h16.835v-16.836h-16.836v16.837zM130.647 270.92h21.115v-21.115h-21.115v21.116zm2.14-2.14h16.835v-16.836h-16.836v16.836z" mask="url(#prefix__e)"/>
            <path fill="#DEDEE1" d="M101.515 281.88v62.114h30.211c-1.331.009-28.39-30.906-30.21-62.114" mask="url(#prefix__e)"/>
            <path fill="#ECECF1" d="M135.59 314.617c-8.959-2.67-15.572-6.406-20.452-10.525-11.504-9.705-13.376-21.532-13.623-26.524v4.059c1.82 31.207 28.88 62.375 30.211 62.368-1.392-1.618-2.006-3.878-2.074-6.243-.165-5.753 2.912-13.622 5.939-23.135M130.647 134.761L172.203 134.761 172.203 123.373 130.647 123.373zM180.925 134.761L222.481 134.761 222.481 123.373 180.925 123.373zM231.203 134.761L272.76 134.761 272.76 123.373 231.203 123.373zM130.647 157.535L172.203 157.535 172.203 146.148 130.647 146.148zM180.925 157.535L222.481 157.535 222.481 146.148 180.925 146.148zM231.203 157.535L272.76 157.535 272.76 146.148 231.203 146.148zM272.76 186.27c0 .953-.928 1.732-2.063 1.732H132.71c-1.135 0-2.063-.779-2.063-1.731 0-.951.928-1.731 2.063-1.731h137.987c1.135 0 2.063.78 2.063 1.73M130.647 180.111L172.203 180.111 172.203 168.724 130.647 168.724zM180.925 180.111L222.481 180.111 222.481 168.724 180.925 168.724zM231.203 180.111L272.76 180.111 272.76 168.724 231.203 168.724z" mask="url(#prefix__e)"/>
            <path fill="#A6A6A6" d="M117.36 313.873L124.841 321.353 147.829 298.366 140.347 290.886z" mask="url(#prefix__e)"/>
            <path fill="#555" d="M27.636 393.039L45.675 411.078 131.889 324.865 113.848 306.826z" mask="url(#prefix__e)"/>
            <path fill="#FF6D00" d="M107.836 312.837L125.877 330.878 131.889 324.865 113.849 306.826z" mask="url(#prefix__e)"/>
            <path fill="#A6A6A6" d="M204.763 312.155c-44.01 0-79.69-35.679-79.69-79.69 0-44.012 35.68-79.692 79.69-79.692 44.013 0 79.69 35.68 79.69 79.692 0 44.011-35.677 79.69-79.69 79.69m0-177.268c-53.891 0-97.577 43.688-97.577 97.578s43.686 97.577 97.577 97.577c53.892 0 97.578-43.687 97.578-97.577s-43.686-97.578-97.578-97.578" mask="url(#prefix__e)"/>
            <path fill="#FFF6E3" d="M242.103 217.053c-6.651-11.91-6.125-24.867 1.173-28.943 7.293-4.074 18.602 2.273 25.25 14.183 6.653 11.907 6.124 24.861-1.17 28.935-7.298 4.08-18.604-2.27-25.253-14.175" mask="url(#prefix__e)"/>
            <path fill="#8F8F8F" d="M323.55 300.954c-5.047 0-9.137-4.091-9.137-9.138s4.09-9.138 9.138-9.138c5.047 0 9.137 4.091 9.137 9.138s-4.09 9.138-9.137 9.138zm17.607-4.603v-9.07h-3.84c-.227-.688-.507-1.35-.83-1.988l2.72-2.72-6.414-6.413-2.72 2.72c-.638-.324-1.3-.603-1.987-.83v-3.84h-9.07v3.84c-.688.227-1.35.506-1.988.83l-2.72-2.72-6.414 6.414 2.72 2.719c-.324.637-.603 1.3-.83 1.988h-3.84v9.07h3.84c.227.688.506 1.35.83 1.988l-2.72 2.72 6.413 6.413 2.72-2.718c.638.321 1.3.602 1.989.828v3.84h9.07v-3.84c.687-.226 1.35-.507 1.987-.828l2.72 2.718 6.415-6.413-2.72-2.72c.322-.638.602-1.3.829-1.988h3.84z" mask="url(#prefix__e)"/>
            <path fill="#FCC848" d="M92.8 146.148c0 10.455-8.476 18.932-18.932 18.932-10.456 0-18.932-8.477-18.932-18.932 0-10.456 8.476-18.933 18.932-18.933 10.456 0 18.932 8.477 18.932 18.933" mask="url(#prefix__e)"/>
            <path fill="#FFF" d="M72.552 162.038v-3.91c-2.245-.04-4.567-.735-5.922-1.704l.93-2.594c1.392.93 3.405 1.665 5.573 1.665 2.748 0 4.606-1.587 4.606-3.793 0-2.13-1.51-3.445-4.374-4.607-3.948-1.547-6.387-3.328-6.387-6.695 0-3.213 2.284-5.653 5.845-6.233v-3.91h2.4v3.755c2.323.078 3.91.697 5.033 1.355l-.969 2.556c-.812-.466-2.4-1.317-4.877-1.317-2.98 0-4.103 1.78-4.103 3.329 0 2.014 1.432 3.02 4.8 4.412 3.988 1.625 6 3.639 6 7.083 0 3.06-2.129 5.923-6.115 6.582v4.026h-2.44z" mask="url(#prefix__e)"/>
            <path fill="#777" d="M377.226 207.395c0 9.504-7.705 17.21-17.21 17.21-9.504 0-17.208-7.706-17.208-17.21 0-9.504 7.704-17.21 17.208-17.21 9.505 0 17.21 7.706 17.21 17.21" mask="url(#prefix__e)"/>
            <path fill="#FFF" d="M360.017 194.332c.584 2.177.887 4.354 1.08 6.531.192 2.177.27 4.355.244 6.532l-1.324-1.325c1.922.028 3.844.104 5.765.319 1.922.203 3.843.481 5.766 1.006-1.923.524-3.844.803-5.766 1.006-1.921.215-3.843.291-5.765.319l-1.31.019-.015-1.344c-.026-2.177.053-4.355.245-6.532.192-2.177.496-4.354 1.08-6.531" mask="url(#prefix__e)"/>
        </g>
    </g>
</svg>
