<svg xmlns="http://www.w3.org/2000/svg" width="20" height="15" viewBox="0 0 20 15">
    <g fill="none" fill-rule="evenodd">
        <path fill="#757575" fill-rule="nonzero" d="M17 7.292h-.32l-1.25-2.99c-.457-1.088-1.557-1.8-2.78-1.802h-6c-1.433-.004-2.668.963-2.95 2.31l-.52 2.482H3c-1.657 0-3 1.287-3 2.875v2.875c0 .254.105.498.293.677C.48 13.9.735 14 1 14h1c0 1.588 1.343 2.875 3 2.875S8 15.588 8 14h4c0 1.588 1.343 2.875 3 2.875s3-1.287 3-2.875h1c.552 0 1-.43 1-.958v-2.875c0-1.588-1.343-2.875-3-2.875zm-6-2.875h1.65c.406.003.77.242.92.603l.95 2.272H11V4.417zm-5.34.766c.096-.453.517-.776 1-.766H9v2.875H5.22l.44-2.109zM5 14.958c-.552 0-1-.429-1-.958 0-.53.448-.958 1-.958S6 13.47 6 14c0 .53-.448.958-1 .958zm10 0c-.552 0-1-.429-1-.958 0-.53.448-.958 1-.958s1 .429 1 .958c0 .53-.448.958-1 .958zm3-2.875h-.78c-.569-.6-1.375-.94-2.22-.94-.845 0-1.651.34-2.22.94H7.22c-.569-.6-1.375-.94-2.22-.94-.845 0-1.651.34-2.22.94H2v-1.916c0-.53.448-.959 1-.959h14c.552 0 1 .43 1 .959v1.916z" transform="translate(0 -2)"/>
        <path d="M0 0H20V20H0z" transform="translate(0 -2)"/>
    </g>
</svg>
