<svg xmlns="http://www.w3.org/2000/svg" width="20" height="20" viewBox="0 0 20 20">
    <g fill="none" fill-rule="evenodd">
        <path fill="#757575" fill-rule="nonzero" d="M10 9.924c-1.506 0-2.727 1.221-2.727 2.728 0 1.506 1.22 2.727 2.727 2.727 1.506 0 2.727-1.221 2.727-2.727 0-1.507-1.22-2.728-2.727-2.728zm0 3.637c-.502 0-.91-.407-.91-.91 0-.502.408-.909.91-.909s.91.407.91.91c0 .502-.408.909-.91.909zm-.645-5.719c.086.083.188.148.3.191.22.098.47.098.69 0 .112-.043.214-.108.3-.19l2.082-2.046c.367-.367.367-.96 0-1.327-.366-.367-.96-.367-1.327 0l-.49.536V1.742c0-.502-.408-.909-.91-.909s-.91.407-.91.91v3.263L8.6 4.47c-.367-.367-.96-.367-1.327 0-.367.366-.367.96 0 1.327l2.082 2.045zm7.009 4.81c0-.503-.407-.91-.91-.91-.502 0-.909.407-.909.91 0 .502.407.909.91.909.502 0 .909-.407.909-.91zm.909-6.364h-2.728c-.502 0-.909.407-.909.909s.407.91.91.91h2.727c.502 0 .909.406.909.908v7.273c0 .502-.407.909-.91.909H2.728c-.502 0-.909-.407-.909-.91V9.016c0-.502.407-.909.91-.909h2.727c.502 0 .909-.407.909-.909s-.407-.91-.91-.91H2.728C1.221 6.288 0 7.51 0 9.016v7.273c0 1.506 1.221 2.727 2.727 2.727h14.546c1.506 0 2.727-1.22 2.727-2.727V9.015c0-1.506-1.221-2.727-2.727-2.727zM3.636 12.652c0 .502.407.909.91.909.502 0 .909-.407.909-.91 0-.502-.407-.909-.91-.909-.502 0-.909.407-.909.91z"/>
        <path d="M0 0H20V20H0z"/>
    </g>
</svg>
