<svg xmlns="http://www.w3.org/2000/svg" xmlns:xlink="http://www.w3.org/1999/xlink" width="20" height="15" viewBox="0 0 20 15">
    <defs>
        <path id="prefix__a" d="M7 8.333c-.552 0-1 .448-1 1v2c0 .553.448 1 1 1s1-.447 1-1v-2c0-.552-.448-1-1-1zm12 1c.552 0 1-.447 1-1v-4c0-.552-.448-1-1-1H1c-.552 0-1 .448-1 1v4c0 .553.448 1 1 1s1 .448 1 1c0 .553-.448 1-1 1s-1 .448-1 1v4c0 .553.448 1 1 1h18c.552 0 1-.447 1-1v-4c0-.552-.448-1-1-1s-1-.447-1-1c0-.552.448-1 1-1zm-1-1.82c-1.186.431-1.976 1.558-1.976 2.82 0 1.263.79 2.39 1.976 2.82v2.18H8c0-.552-.448-1-1-1s-1 .448-1 1H2v-2.18c1.186-.43 1.976-1.557 1.976-2.82 0-1.262-.79-2.389-1.976-2.82v-2.18h4c0 .553.448 1 1 1s1-.447 1-1h10v2.18z"/>
    </defs>
    <g fill="none" fill-rule="evenodd" transform="translate(0 -3)">
        <path d="M0 0H20V20H0z"/>
        <use fill="#757575" fill-rule="nonzero" xlink:href="#prefix__a"/>
    </g>
</svg>
