<svg xmlns="http://www.w3.org/2000/svg" width="20" height="21" viewBox="0 0 20 21">
    <path fill="#FFF" fill-rule="evenodd" d="M19.09 14.825H.91c-.503 0-.91.415-.91.927 0 .511.407.926.91.926h18.18c.503 0 .91-.415.91-.926 0-.512-.407-.927-.91-.927zm0 3.706H.91c-.503 0-.91.415-.91.927s.407.927.91.927h18.18c.503 0 .91-.415.91-.927s-.407-.927-.91-.927zM4.546 5.56c-.502 0-.909.415-.909.927s.407.927.91.927c.502 0 .909-.415.909-.927s-.407-.927-.91-.927zM17.273 0H2.727C1.221 0 0 1.245 0 2.78v7.412c0 1.536 1.221 2.78 2.727 2.78h14.546c1.506 0 2.727-1.244 2.727-2.78V2.78C20 1.245 18.779 0 17.273 0zm.909 10.192c0 .512-.407.927-.91.927H2.728c-.502 0-.909-.415-.909-.927V2.78c0-.512.407-.927.91-.927h14.545c.502 0 .909.415.909.927v7.412zM10 3.706c-1.506 0-2.727 1.245-2.727 2.78 0 1.535 1.22 2.78 2.727 2.78 1.506 0 2.727-1.245 2.727-2.78 0-1.535-1.22-2.78-2.727-2.78zm0 3.707c-.502 0-.91-.415-.91-.927s.408-.927.91-.927.91.415.91.927-.408.927-.91.927zm5.455-1.854c-.503 0-.91.415-.91.927s.407.927.91.927c.502 0 .909-.415.909-.927s-.407-.927-.91-.927z"/>
</svg>
