<svg xmlns="http://www.w3.org/2000/svg" width="24" height="24" viewBox="0 0 24 24">
    <path fill="#F3A606" d="M20.4 9.6h-.384l-1.5-3.744c-.548-1.362-1.868-2.254-3.336-2.256h-7.2c-1.72-.005-3.202 1.206-3.54 2.892L3.816 9.6H3.6C1.612 9.6 0 11.212 0 13.2v3.6c0 .318.126.623.351.849.226.225.53.351.849.351h1.2c0 1.988 1.612 3.6 3.6 3.6s3.6-1.612 3.6-3.6h4.8c0 1.988 1.612 3.6 3.6 3.6s3.6-1.612 3.6-3.6h1.2c.663 0 1.2-.537 1.2-1.2v-3.6c0-1.988-1.612-3.6-3.6-3.6zM13.2 6h1.98c.487.004.924.303 1.104.756l1.14 2.844H13.2V6zm-6.408.96c.116-.568.62-.972 1.2-.96H10.8v3.6H6.264l.528-2.64zM6 19.2c-.663 0-1.2-.537-1.2-1.2 0-.663.537-1.2 1.2-1.2.663 0 1.2.537 1.2 1.2 0 .663-.537 1.2-1.2 1.2zm12 0c-.663 0-1.2-.537-1.2-1.2 0-.663.537-1.2 1.2-1.2.663 0 1.2.537 1.2 1.2 0 .663-.537 1.2-1.2 1.2zm3.6-3.6h-.936c-.682-.75-1.65-1.179-2.664-1.179-1.014 0-1.982.428-2.664 1.179H8.664c-.682-.75-1.65-1.179-2.664-1.179-1.014 0-1.982.428-2.664 1.179H2.4v-2.4c0-.663.537-1.2 1.2-1.2h16.8c.663 0 1.2.537 1.2 1.2v2.4z"/>
</svg>
