<svg xmlns="http://www.w3.org/2000/svg" width="20" height="21" viewBox="0 0 20 21">
    <path fill="#FFF" fill-rule="evenodd" d="M17 8.221h-.32l-1.25-3.105c-.457-1.13-1.557-1.87-2.78-1.87h-6c-1.433-.005-2.668 1-2.95 2.398L3.18 8.22H3c-1.657 0-3 1.337-3 2.986v2.985c0 .264.105.517.293.704.187.187.442.292.707.292h1c0 1.648 1.343 2.985 3 2.985s3-1.337 3-2.985h4c0 1.648 1.343 2.985 3 2.985s3-1.337 3-2.985h1c.552 0 1-.446 1-.996v-2.985c0-1.65-1.343-2.986-3-2.986zm-6-2.985h1.65c.406.003.77.251.92.627l.95 2.358H11V5.236zm-5.34.796c.096-.471.517-.806 1-.796H9V8.22H5.22l.44-2.19zM5 16.182c-.552 0-1-.445-1-.994 0-.55.448-.996 1-.996s1 .446 1 .996-.448.995-1 .995zm10 0c-.552 0-1-.445-1-.994 0-.55.448-.996 1-.996s1 .446 1 .996-.448.995-1 .995zm3-2.985h-.78c-.569-.622-1.375-.977-2.22-.977-.845 0-1.651.355-2.22.977H7.22c-.569-.622-1.375-.977-2.22-.977-.845 0-1.651.355-2.22.977H2v-1.99c0-.55.448-.995 1-.995h14c.552 0 1 .445 1 .995v1.99z"/>
</svg>
