<svg xmlns="http://www.w3.org/2000/svg" width="20" height="20" viewBox="0 0 20 20">
    <path fill="#FFF" fill-rule="nonzero" d="M7.5 8.502H10a1 1 0 1 0 0-2H9v-.5a1 1 0 0 0-2 0v.55a2.5 2.5 0 0 0 .5 4.95h1a.5.5 0 1 1 0 1H6a1 1 0 1 0 0 2h1V15a1 1 0 0 0 2 0v-.55a2.5 2.5 0 0 0-.5-4.949h-1a.5.5 0 1 1 0-1zm11.5 1.5h-3V1.004a1 1 0 0 0-1.5-.87l-3 1.72-3-1.72a1 1 0 0 0-1 0l-3 1.72-3-1.72a1 1 0 0 0-1.5.87V17A3 3 0 0 0 3 20h14a3 3 0 0 0 3-3v-5.998a1 1 0 0 0-1-1zM3 18a1 1 0 0 1-1-1V2.734l2 1.14a1.08 1.08 0 0 0 1 0l3-1.72 3 1.72a1.08 1.08 0 0 0 1 0l2-1.14v14.268c.003.34.064.679.18 1H3zm15-1a1 1 0 0 1-2 0v-4.998h2V17z"/>
</svg>
