<svg xmlns="http://www.w3.org/2000/svg" width="20" height="20" viewBox="0 0 20 20">
    <path fill="#757575" d="M12.662 3.125l-.001 1.999H7.997c0 .513-.386.935-.883.993l-.117.007c-.552 0-1-.448-1-1H2v2.18c1.186.43 1.976 1.557 1.976 2.818 0 1.262-.79 2.389-1.976 2.82v2.178h3.999c0-.552.447-1 1-1 .551 0 .999.448.999 1h9.996v-2.179c-1.08-.392-1.832-1.362-1.957-2.486h2.014c.137.389.507.667.943.667.552 0 1 .447 1 1v3.998c0 .552-.448 1-1 1H1c-.552 0-1-.448-1-1v-3.998c0-.553.448-1 1-1s1-.448 1-1-.448-1-1-1-1-.447-1-.999V4.125c0-.552.448-1 1-1h11.662zM6.997 8.123c.552 0 1 .448 1 1v1.999c0 .552-.448 1-1 1s-1-.448-1-1v-2c0-.551.448-.999 1-.999zm7.153-4.851c.196-.196.513-.196.71 0L17 5.419l2.142-2.147c.196-.196.514-.196.71 0 .195.196.195.513 0 .709l-2.148 2.142 2.147 2.143c.095.094.148.221.148.354 0 .134-.053.261-.148.355-.093.095-.221.148-.354.148-.133 0-.261-.053-.355-.148l-2.142-2.147-2.142 2.147c-.094.095-.221.148-.354.148-.134 0-.261-.053-.355-.148-.095-.094-.148-.221-.148-.355 0-.133.053-.26.148-.354l2.147-2.143-2.147-2.142c-.196-.196-.196-.513 0-.71z"/>
</svg>
