<svg xmlns="http://www.w3.org/2000/svg" xmlns:xlink="http://www.w3.org/1999/xlink" width="24" height="25" viewBox="0 0 24 25">
    <defs>
        <path id="prefix__a" d="M8.4 6.938c-.663 0-1.2.547-1.2 1.223v2.446c0 .675.537 1.223 1.2 1.223.663 0 1.2-.548 1.2-1.223V8.16c0-.676-.537-1.223-1.2-1.223zM22.8 8.16c.663 0 1.2-.548 1.2-1.223V2.045c0-.675-.537-1.223-1.2-1.223H1.2C.537.822 0 1.37 0 2.045v4.893C0 7.612.537 8.16 1.2 8.16c.663 0 1.2.547 1.2 1.223 0 .675-.537 1.223-1.2 1.223-.663 0-1.2.547-1.2 1.223v4.892c0 .676.537 1.223 1.2 1.223h21.6c.663 0 1.2-.547 1.2-1.223V11.83c0-.676-.537-1.223-1.2-1.223-.663 0-1.2-.548-1.2-1.223 0-.676.537-1.223 1.2-1.223zm-1.2-2.226c-1.424.526-2.372 1.905-2.372 3.449 0 1.543.948 2.922 2.372 3.449v2.666h-12c0-.675-.537-1.223-1.2-1.223-.663 0-1.2.548-1.2 1.223H2.4v-2.666c1.424-.527 2.372-1.906 2.372-3.45 0-1.543-.948-2.922-2.372-3.448V3.268h4.8c0 .676.537 1.223 1.2 1.223.663 0 1.2-.547 1.2-1.223h12v2.667z"/>
    </defs>
    <g fill="none" fill-rule="evenodd" transform="translate(0 3)">
        <use fill="#FFF" fill-rule="nonzero" xlink:href="#prefix__a"/>
    </g>
</svg>
