<svg xmlns="http://www.w3.org/2000/svg" width="20" height="20" viewBox="0 0 20 20">
    <path fill="#57a7ff" d="M11 14H5c-.552 0-1 .448-1 1s.448 1 1 1h6c.552 0 1-.448 1-1s-.448-1-1-1zM7 8h2c.552 0 1-.448 1-1s-.448-1-1-1H7c-.552 0-1 .448-1 1s.448 1 1 1zm12 2h-3V1c.001-.359-.19-.69-.5-.87-.31-.179-.69-.179-1 0l-3 1.72-3-1.72c-.31-.179-.69-.179-1 0l-3 1.72-3-1.72c-.31-.179-.69-.179-1 0C.19.31-.001.641 0 1v16c0 1.657 1.343 3 3 3h14c1.657 0 3-1.343 3-3v-6c0-.552-.448-1-1-1zM3 18c-.552 0-1-.448-1-1V2.73l2 1.14c.313.164.687.164 1 0l3-1.72 3 1.72c.313.164.687.164 1 0l2-1.14V17c.003.341.064.68.18 1H3zm15-1c0 .552-.448 1-1 1s-1-.448-1-1v-5h2v5zm-7-7H5c-.552 0-1 .448-1 1s.448 1 1 1h6c.552 0 1-.448 1-1s-.448-1-1-1z"/>
</svg>
