<svg xmlns="http://www.w3.org/2000/svg" width="12" height="12" viewBox="0 0 12 12">
    <path fill="#FFF" fill-rule="evenodd" d="M9.155 10.594a.23.23 0 0 1-.226.2l-3.997.006a.23.23 0 0 1-.227-.212l-.058-.156v-.002l-2.29-2.988a.53.53 0 0 1 .38-.908.54.54 0 0 1 .38.155l.645.602c.05.047.042.068.1.068.13 0 .183-.099.183-.247v-4.6c0-.296.314-.538.613-.538.02 0 .006.001.027.004.277.031.443.274.443.55v2.755c0 .143.124.26.269.26a.27.27 0 0 0 .272-.263V1.737c0-.295.308-.537.607-.537.022 0 .01.001.03.004.277.031.446.274.446.55V5.28a.27.27 0 0 0 .273.262.266.266 0 0 0 .268-.258V2.51c0-.295.303-.537.602-.537.021 0 .012.001.033.004.277.031.448.274.448.55v2.746c0 .148.243.305.392.305.144 0 .15-.148.15-.285V3.592c0-.276.255-.518.532-.55.021-.003.014-.004.035-.004.3 0 .515.242.515.537v1.967c0 1.68-.15 3.832-.76 4.772-.013.019-.04.112-.085.28zm.552-8.497a1.242 1.242 0 0 0-.545.197v-.237c0-.599-.405-1.102-.993-1.17a1.132 1.132 0 0 0-.771.198A1.165 1.165 0 0 0 6.242 0c-.619 0-1.125.481-1.163 1.086A1.146 1.146 0 0 0 4.385.88c-.643 0-1.198.52-1.198 1.158v3.928l-.24-.255a1.139 1.139 0 0 0-1.61.006 1.148 1.148 0 0 0-.026 1.6l2.477 3.242.054.697A.811.811 0 0 0 4.65 12l4.525-.004a.81.81 0 0 0 .802-.7l.11-.83c.348-.558.573-1.298.734-2.2.14-.79.179-1.725.179-2.782V3.248c0-.64-.491-1.159-1.135-1.159-.045 0-.113.003-.158.008z"/>
</svg>
