<svg xmlns="http://www.w3.org/2000/svg" width="20" height="20" viewBox="0 0 20 20">
    <path fill="#57a7ff" d="M10 9c-1.657 0-3 1.343-3 3s1.343 3 3 3 3-1.343 3-3-1.343-3-3-3zm0 4c-.552 0-1-.448-1-1s.448-1 1-1 1 .448 1 1-.448 1-1 1zm7-9h-3V3c0-1.657-1.343-3-3-3H9C7.343 0 6 1.343 6 3v1H3C1.343 4 0 5.343 0 7v10c0 1.657 1.343 3 3 3h14c1.657 0 3-1.343 3-3V7c0-1.657-1.343-3-3-3zM8 3c0-.552.448-1 1-1h2c.552 0 1 .448 1 1v1H8V3zM2 7c0-.552.448-1 1-1h1c0 1.105-.895 2-2 2V7zm1 11c-.552 0-1-.448-1-1v-1c1.105 0 2 .895 2 2H3zm15-1c0 .552-.448 1-1 1h-1c0-1.105.895-2 2-2v1zm0-3c-2.21 0-4 1.79-4 4H6c0-2.21-1.79-4-4-4v-4c2.21 0 4-1.79 4-4h8c0 2.21 1.79 4 4 4v4zm0-6c-1.105 0-2-.895-2-2h1c.552 0 1 .448 1 1v1z"/>
</svg>
