<svg xmlns="http://www.w3.org/2000/svg" width="20" height="21" viewBox="0 0 20 21">
    <g fill="none" fill-rule="evenodd">
        <g fill="#F00000">
            <g>
                <g>
                    <path d="M5.332 4.224L2.386 1.27c-.232-.233-.572-.324-.89-.239-.317.086-.566.334-.651.652-.085.318.006.657.238.89l2.083 2.101c-1.058.602-2.032 1.339-2.9 2.193-.355.358-.355.936 0 1.294.172.175.407.274.652.275.241 0 .472-.096.643-.266.874-.867 1.877-1.594 2.973-2.156L5.9 7.427C4.764 7.924 3.73 8.63 2.854 9.51c-.26.226-.371.579-.288.913.083.335.346.595.682.673.336.078.687-.038.91-.302.889-.885 1.973-1.551 3.165-1.945l1.487 1.477c-1.273.245-2.442.865-3.359 1.78-.26.227-.371.58-.288.914.083.335.346.594.682.673.335.078.687-.039.91-.302.853-.871 2.018-1.366 3.238-1.376.194 0 .387.016.578.046l7.029 7.028c.172.174.407.272.651.272.245 0 .48-.098.652-.272.174-.172.271-.406.271-.651s-.097-.48-.271-.652L5.332 4.224zm4.661 9.626c-1.52 0-2.753 1.232-2.753 2.753 0 1.52 1.233 2.752 2.753 2.752s2.753-1.232 2.753-2.752c0-1.52-1.232-2.753-2.753-2.753zm0 3.67c-.507 0-.917-.41-.917-.917 0-.507.41-.918.917-.918.507 0 .918.41.918.918 0 .506-.411.917-.918.917zM19.73 6.867C16.759 3.9 12.596 2.45 8.424 2.931c-.507.055-.872.511-.816 1.018.055.507.511.873 1.018.817 3.617-.413 7.225.84 9.809 3.404.36.357.941.355 1.298-.004.358-.36.356-.942-.004-1.299zm-3.9 3.89c.362.315.905.298 1.246-.038.342-.337.366-.88.057-1.246-1.226-1.24-2.758-2.133-4.441-2.588-.327-.126-.698-.055-.955.184-.257.238-.356.603-.254.938.102.336.386.584.732.64 1.367.38 2.613 1.106 3.615 2.11z" transform="translate(-115 -558) translate(100 551) translate(15 7.5)"/>
                </g>
            </g>
        </g>
    </g>
</svg>
