<svg xmlns="http://www.w3.org/2000/svg" width="20" height="21" viewBox="0 0 20 21">
    <g fill="none" fill-rule="evenodd">
        <g fill="#F00000">
            <g>
                <g>
                    <path d="M17.164 13.182h-4.091c-.502 0-.91.407-.91.909s.408.909.91.909h2.182c-1.368 1.444-3.266 2.265-5.255 2.273-.974-.001-1.938-.196-2.836-.573l-1.355 1.355C7.1 18.737 8.54 19.093 10 19.09c2.33-.007 4.57-.908 6.255-2.518v1.609c0 .502.407.909.909.909s.909-.407.909-.91v-4.09c0-.502-.407-.91-.91-.91zm-1.428-7.637l1.3-1.3 1.819-1.818c.23-.23.32-.566.236-.881-.085-.315-.33-.561-.646-.646-.315-.084-.65.006-.881.236l-1.819 1.819C14.127 1.625 12.095.9 10 .909c-2.33.007-4.57.908-6.255 2.518V1.818c0-.502-.407-.909-.909-.909s-.909.407-.909.91v4.09c0 .502.407.91.91.91h4.09c.502 0 .91-.408.91-.91S7.428 5 6.926 5H4.745c2.556-2.719 6.764-3.038 9.7-.736L4.264 14.445C3.269 13.177 2.728 11.612 2.727 10c0-.502-.407-.91-.909-.91S.91 9.499.91 10c-.003 2.097.727 4.13 2.064 5.745l-1.818 1.819c-.173.17-.27.403-.27.645s.097.475.27.646c.17.172.403.268.645.268s.475-.096.645-.268l1.819-1.819 1.3-1.3 10.172-10.19zm.964 1.619c.377.898.572 1.862.573 2.836 0 .502.407.91.909.91s.909-.408.909-.91c.002-1.46-.354-2.9-1.036-4.19L16.7 7.163z" transform="translate(-115 -486) translate(100 479) translate(15 7.5)"/>
                </g>
            </g>
        </g>
    </g>
</svg>
