<svg xmlns="http://www.w3.org/2000/svg" width="12" height="12" viewBox="0 0 12 12">
    <path fill="#FFF" fill-rule="nonzero" d="M7.2 4.2H4.8a.6.6 0 0 0-.6.6v2.4a.6.6 0 0 0 .6.6h2.4a.6.6 0 0 0 .6-.6V4.8a.6.6 0 0 0-.6-.6zm-.6 2.4H5.4V5.4h1.2v1.2zm4.8 0a.6.6 0 0 0 0-1.2h-1.2V4.2h1.2a.6.6 0 0 0 0-1.2h-1.308A1.8 1.8 0 0 0 9 1.908V.6a.6.6 0 1 0-1.2 0v1.2H6.6V.6a.6.6 0 1 0-1.2 0v1.2H4.2V.6A.6.6 0 1 0 3 .6v1.308A1.8 1.8 0 0 0 1.908 3H.6a.6.6 0 1 0 0 1.2h1.2v1.2H.6a.6.6 0 1 0 0 1.2h1.2v1.2H.6A.6.6 0 1 0 .6 9h1.308A1.8 1.8 0 0 0 3 10.092V11.4a.6.6 0 0 0 1.2 0v-1.2h1.2v1.2a.6.6 0 0 0 1.2 0v-1.2h1.2v1.2a.6.6 0 0 0 1.2 0v-1.308A1.8 1.8 0 0 0 10.092 9H11.4a.6.6 0 0 0 0-1.2h-1.2V6.6h1.2zM9 8.4a.6.6 0 0 1-.6.6H3.6a.6.6 0 0 1-.6-.6V3.6a.6.6 0 0 1 .6-.6h4.8a.6.6 0 0 1 .6.6v4.8z"/>
</svg>
