<svg xmlns="http://www.w3.org/2000/svg" width="16" height="20" viewBox="0 0 16 20">
    <path fill="#FFF" d="M15.63 1.65c-.235-.19-.544-.264-.84-.2-2.16.453-4.41-.007-6.22-1.27-.343-.238-.797-.238-1.14 0-1.81 1.263-4.06 1.723-6.22 1.27-.296-.064-.605.01-.84.2s-.371.477-.37.78v7.45c-.002 2.909 1.403 5.64 3.77 7.33l3.65 2.6c.347.247.813.247 1.16 0l3.65-2.6c2.367-1.69 3.772-4.421 3.77-7.33V2.43c.001-.303-.135-.59-.37-.78zM14 9.88c.002 2.262-1.09 4.385-2.93 5.7L8 17.77l-3.07-2.19C3.09 14.265 1.998 12.142 2 9.88v-6.3c2.096.18 4.196-.307 6-1.39 1.804 1.083 3.904 1.57 6 1.39v6.3z"/>
</svg>
