<svg xmlns="http://www.w3.org/2000/svg" width="20" height="20" viewBox="0 0 20 20">
    <path fill="#57a7ff" d="M19.048 7.67c-.123-.374-.444-.636-.82-.67l-5.418-.83L10.38 1c-.16-.345-.492-.564-.857-.564S8.826.655 8.667 1L6.238 6.16.82 7c-.36.054-.659.317-.771.68-.103.354-.012.739.238 1l3.933 4-.952 5.68c-.07.383.079.773.38 1 .294.22.682.248 1 .07l4.877-2.67 4.857 2.68c.134.08.285.12.438.12.202 0 .399-.066.562-.19.302-.227.45-.617.38-1l-.951-5.68 3.933-4c.28-.25.4-.647.305-1.02zm-5.858 4c-.226.23-.33.564-.276.89l.686 4.19-3.581-2c-.28-.156-.615-.156-.895 0l-3.581 2 .686-4.19c.054-.326-.05-.66-.277-.89l-2.857-3 4.01-.61c.313-.046.584-.252.724-.55L9.524 3.7l1.79 3.82c.14.298.41.504.724.55l4.01.61-2.858 2.99z"/>
</svg>
