<svg xmlns="http://www.w3.org/2000/svg" xmlns:xlink="http://www.w3.org/1999/xlink" width="20" height="20" viewBox="0 0 20 20">
    <defs>
        <path id="prefix__a" d="M2.929 4.343c-.253-.253-.351-.62-.259-.966.093-.345.362-.614.707-.707.345-.092.713.006.966.259s.351.62.259.966c-.093.345-.362.614-.707.707-.345.092-.713-.006-.966-.259m14.142 11.314c.253.253.351.62.259.966-.093.345-.362.614-.707.707-.345.092-.713-.006-.966-.259s-.351-.62-.259-.966c.093-.345.362-.614.707-.707.345-.092.713.006.966.259m-12.728 0c.253.253.351.62.259.966-.093.345-.362.614-.707.707-.345.092-.713-.006-.966-.259s-.351-.62-.259-.966c.093-.345.362-.614.707-.707.345-.092.713.006.966.259M17.071 2.929c.253.253.351.62.259.966-.093.345-.362.614-.707.707-.345.092-.713-.006-.966-.259s-.351-.62-.259-.966c.093-.345.362-.614.707-.707.345-.092.713.006.966.259M2 10c0 .552-.448 1-1 1s-1-.448-1-1 .448-1 1-1 1 .448 1 1m18 0c0 .552-.448 1-1 1s-1-.448-1-1 .448-1 1-1 1 .448 1 1m-9 9c0 .552-.448 1-1 1s-1-.448-1-1 .448-1 1-1 1 .448 1 1M9 1c0-.552.448-1 1-1s1 .448 1 1-.448 1-1 1-1-.448-1-1m1 14c-2.757 0-5-2.243-5-5s2.243-5 5-5 5 2.243 5 5-2.243 5-5 5m0-12c-3.866 0-7 3.134-7 7s3.134 7 7 7 7-3.134 7-7-3.134-7-7-7"/>
    </defs>
    <g fill="none" fill-rule="evenodd" transform="translate(.01)">
        <mask id="prefix__b" fill="#fff">
            <use xlink:href="#prefix__a"/>
        </mask>
        <use fill="#000" fill-rule="nonzero" xlink:href="#prefix__a"/>
        <g fill="#000" mask="url(#prefix__b)">
            <path d="M0 0H20V20H0z"/>
        </g>
    </g>
</svg>
